<?xml version="1.0" encoding="utf-8"?>
<!-- Generator: Adobe Illustrator 27.5.0, SVG Export Plug-In . SVG Version: 6.00 Build 0)  -->
<svg version="1.1" xmlns="http://www.w3.org/2000/svg" xmlns:xlink="http://www.w3.org/1999/xlink" x="0px" y="0px"
	 viewBox="0 0 500 500" style="enable-background:new 0 0 500 500;" xml:space="preserve">
<g id="Sparkles_00000007413154412528609110000010270621787140892316_">
	<path id="Sparkles" style="opacity:0.1;fill:#BA68C8;" d="M365.768,252.799c19.295-0.347,38.59-0.582,57.885-1.022l28.942-0.676
		c9.647-0.297,19.295-0.528,28.942-0.887v-0.428c-9.647-0.36-19.295-0.59-28.942-0.887l-28.942-0.676
		c-19.295-0.44-38.59-0.675-57.885-1.022c-19.295-0.278-38.589-0.58-57.884-0.675c-6.071,0.001-12.142-0.019-18.213,0.003
		c5.983-1.032,11.958-2.106,17.937-3.159c18.985-3.444,37.934-7.092,56.888-10.716c18.941-3.693,37.902-7.274,56.828-11.058
		l28.385-5.691c9.449-1.968,18.91-3.87,28.348-5.9l-0.074-0.421c-9.563,1.321-19.104,2.77-28.656,4.152l-28.62,4.36
		c-19.078,2.917-38.12,6.037-57.182,9.045c-19.05,3.077-38.104,6.13-57.122,9.387c-6.009,1.06-12.022,2.1-18.027,3.182
		c5.741-2.065,11.473-4.156,17.207-6.242c18.099-6.689,36.126-13.571,54.163-20.432c18.013-6.926,36.063-13.745,54.044-20.758
		l26.965-10.534c8.964-3.579,17.951-7.095,26.893-10.732l-0.146-0.402c-9.189,2.962-18.333,6.045-27.5,9.065l-27.428,9.264
		c-18.281,6.186-36.493,12.564-54.743,18.837c-18.226,6.338-36.46,12.654-54.624,19.163c-5.764,2.099-11.53,4.192-17.286,6.313
		c5.324-3.047,10.634-6.117,15.946-9.184c16.663-9.73,33.221-19.638,49.792-29.526c16.536-9.948,33.129-19.799,49.618-29.827
		l24.726-15.057c8.207-5.081,16.446-10.104,24.621-15.239l-0.214-0.371c-8.535,4.512-17.005,9.137-25.508,13.703l-25.403,13.886
		c-16.93,9.266-33.757,18.71-50.64,28.057c-16.849,9.407-33.709,18.793-50.467,28.358c-5.311,3.067-10.626,6.131-15.926,9.218
		c4.714-3.925,9.41-7.871,14.109-11.813c14.72-12.475,29.306-25.109,43.908-37.724c14.557-12.669,29.187-25.251,43.685-37.99
		l21.737-19.122c7.199-6.429,14.441-12.807,21.6-19.283l-0.275-0.328c-7.622,5.926-15.16,11.951-22.741,17.924l-22.606,18.086
		c-15.063,12.066-29.995,24.288-44.999,36.424c-14.96,12.189-29.934,24.361-44.776,36.691c-4.699,3.943-9.4,7.883-14.084,11.844
		c3.961-4.684,7.901-9.385,11.844-14.084c12.33-14.842,24.501-29.816,36.691-44.776c12.136-15.004,24.359-29.935,36.424-44.999
		l18.086-22.605c5.973-7.581,11.998-15.12,17.924-22.741l-0.328-0.275c-6.477,7.159-12.854,14.402-19.284,21.601l-19.121,21.737
		c-12.74,14.498-25.322,29.128-37.99,43.685c-12.615,14.602-25.249,29.189-37.724,43.908c-3.942,4.699-7.888,9.395-11.813,14.109
		c3.087-5.3,6.15-10.614,9.218-15.926c9.565-16.757,18.951-33.618,28.358-50.467c9.347-16.883,18.79-33.71,28.057-50.64
		l13.886-25.403c4.566-8.504,9.191-16.974,13.703-25.508l-0.371-0.214c-5.135,8.175-10.158,16.415-15.239,24.621l-15.056,24.727
		c-10.028,16.49-19.879,33.082-29.828,49.618c-9.888,16.571-19.797,33.13-29.527,49.792c-3.067,5.312-6.137,10.622-9.184,15.946
		c2.12-5.756,4.214-11.521,6.312-17.285c6.51-18.164,12.826-36.398,19.164-54.624c6.273-18.25,12.652-36.461,18.837-54.743
		L320.326,60c3.02-9.167,6.103-18.312,9.065-27.5l-0.402-0.147c-3.638,8.943-7.153,17.93-10.733,26.893l-10.534,26.966
		c-7.013,17.981-13.832,36.032-20.758,54.044c-6.86,18.036-13.743,36.064-20.432,54.163c-2.086,5.734-4.177,11.465-6.242,17.206
		c1.082-6.005,2.122-12.018,3.182-18.027c3.257-19.018,6.31-38.072,9.387-57.122c3.009-19.062,6.128-38.104,9.045-57.183l4.36-28.62
		c1.382-9.552,2.831-19.093,4.152-28.656l-0.422-0.074c-2.029,9.438-3.931,18.899-5.9,28.348l-5.691,28.385
		c-3.784,18.925-7.365,37.886-11.058,56.828c-3.624,18.953-7.272,37.902-10.716,56.888c-1.054,5.979-2.127,11.955-3.16,17.938
		c0.023-6.071,0.003-12.143,0.003-18.214c-0.095-19.295-0.397-38.59-0.675-57.884c-0.347-19.295-0.582-38.589-1.022-57.884
		l-0.676-28.942c-0.297-9.647-0.528-19.295-0.888-28.942h-0.428c-0.36,9.647-0.59,19.295-0.887,28.942l-0.676,28.942
		c-0.44,19.295-0.674,38.589-1.022,57.884c-0.278,19.295-0.58,38.59-0.675,57.884c0.001,6.071-0.019,12.142,0.003,18.214
		c-1.033-5.983-2.106-11.958-3.16-17.938c-3.444-18.985-7.092-37.934-10.716-56.888c-3.693-18.941-7.274-37.902-11.057-56.828
		l-5.692-28.385c-1.968-9.449-3.87-18.91-5.9-28.348l-0.422,0.074c1.321,9.563,2.769,19.104,4.152,28.656l4.36,28.62
		c2.917,19.078,6.037,38.121,9.045,57.183c3.077,19.05,6.13,38.104,9.387,57.122c1.06,6.009,2.1,12.021,3.182,18.027
		c-2.065-5.741-4.156-11.473-6.242-17.206c-6.689-18.099-13.571-36.127-20.432-54.163c-6.926-18.012-13.745-36.063-20.758-54.044
		l-10.534-26.966c-3.579-8.964-7.095-17.951-10.733-26.893l-0.402,0.147c2.962,9.189,6.045,18.333,9.066,27.5l9.263,27.428
		c6.186,18.282,12.564,36.493,18.837,54.743c6.338,18.226,12.654,36.46,19.164,54.624c2.098,5.764,4.192,11.529,6.312,17.285
		c-3.046-5.324-6.117-10.634-9.184-15.946c-9.73-16.662-19.638-33.221-29.526-49.792c-9.948-16.536-19.799-33.129-29.827-49.618
		l-15.057-24.727c-5.081-8.206-10.104-16.446-15.239-24.621l-0.371,0.214c4.512,8.535,9.137,17.005,13.703,25.508l13.886,25.403
		c9.267,16.93,18.71,33.757,28.057,50.64c9.407,16.849,18.792,33.71,28.358,50.467c3.067,5.312,6.131,10.626,9.218,15.926
		c-3.925-4.714-7.871-9.41-11.813-14.109c-12.475-14.72-25.109-29.306-37.724-43.908c-12.669-14.557-25.251-29.187-37.99-43.685
		l-19.122-21.737c-6.429-7.199-12.807-14.441-19.283-21.601l-0.328,0.275c5.926,7.622,11.951,15.16,17.924,22.741l18.086,22.605
		c12.066,15.064,24.288,29.995,36.424,44.999c12.189,14.959,24.361,29.934,36.691,44.776c3.943,4.699,7.883,9.4,11.844,14.084
		c-4.684-3.961-9.385-7.9-14.084-11.844c-14.841-12.33-29.816-24.501-44.776-36.691c-15.004-12.136-29.935-24.359-44.999-36.424
		l-22.606-18.086c-7.582-5.973-15.12-11.998-22.741-17.924l-0.275,0.328c7.159,6.477,14.402,12.854,21.601,19.283l21.736,19.122
		c14.498,12.74,29.128,25.322,43.685,37.99c14.602,12.615,29.189,25.249,43.908,37.724c4.699,3.942,9.395,7.888,14.109,11.813
		c-5.3-3.087-10.615-6.15-15.926-9.218c-16.757-9.565-33.618-18.951-50.467-28.358c-16.883-9.346-33.71-18.791-50.64-28.057
		l-25.403-13.886c-8.504-4.566-16.974-9.19-25.508-13.703l-0.214,0.371c8.175,5.135,16.415,10.158,24.621,15.239l24.726,15.057
		c16.49,10.029,33.082,19.879,49.618,29.827c16.571,9.888,33.13,19.797,49.792,29.526c5.312,3.067,10.622,6.137,15.947,9.184
		c-5.756-2.12-11.522-4.214-17.285-6.313c-18.164-6.51-36.398-12.826-54.624-19.163c-18.25-6.273-36.462-12.652-54.743-18.837
		l-27.428-9.264c-9.167-3.02-18.312-6.103-27.5-9.065l-0.146,0.402c8.943,3.637,17.93,7.153,26.893,10.732l26.966,10.534
		c17.98,7.013,36.031,13.832,54.044,20.758c18.036,6.861,36.064,13.743,54.163,20.432c5.734,2.086,11.466,4.177,17.206,6.242
		c-6.005-1.082-12.018-2.122-18.027-3.182c-19.018-3.257-38.072-6.31-57.122-9.387c-19.062-3.008-38.105-6.128-57.182-9.045
		l-28.62-4.36c-9.552-1.382-19.093-2.831-28.656-4.152l-0.074,0.421c9.439,2.029,18.899,3.932,28.348,5.9l28.385,5.691
		c18.925,3.784,37.886,7.365,56.828,11.058c18.953,3.624,37.903,7.272,56.888,10.716c5.979,1.054,11.954,2.127,17.937,3.159
		c-6.071-0.022-12.142-0.003-18.213-0.003c-19.295,0.095-38.59,0.397-57.884,0.675c-19.295,0.348-38.59,0.582-57.884,1.022
		l-28.942,0.676c-9.647,0.298-19.295,0.528-28.942,0.887v0.428c9.647,0.36,19.295,0.59,28.942,0.887l28.942,0.676
		c19.295,0.44,38.589,0.675,57.884,1.022c19.295,0.278,38.589,0.58,57.884,0.675c6.071-0.001,12.142,0.019,18.213-0.003
		c-5.982,1.032-11.958,2.106-17.937,3.159c-18.985,3.444-37.934,7.092-56.888,10.716c-18.941,3.693-37.902,7.274-56.828,11.058
		l-28.385,5.691c-9.449,1.968-18.91,3.87-28.348,5.899l0.074,0.422c9.563-1.321,19.104-2.77,28.656-4.152l28.62-4.36
		c19.078-2.917,38.12-6.036,57.182-9.045c19.05-3.077,38.104-6.13,57.122-9.387c6.009-1.06,12.022-2.1,18.027-3.182
		c-5.741,2.065-11.473,4.156-17.207,6.242c-18.099,6.688-36.126,13.571-54.163,20.432c-18.012,6.926-36.063,13.745-54.044,20.758
		l-26.966,10.534c-8.964,3.579-17.951,7.095-26.893,10.732l0.146,0.403c9.189-2.962,18.333-6.045,27.5-9.065l27.428-9.264
		c18.281-6.186,36.493-12.564,54.743-18.837c18.226-6.338,36.461-12.654,54.624-19.164c5.764-2.098,11.529-4.192,17.285-6.312
		c-5.324,3.047-10.634,6.117-15.947,9.184c-16.662,9.729-33.221,19.638-49.792,29.526c-16.536,9.948-33.129,19.799-49.618,29.827
		l-24.726,15.056c-8.207,5.081-16.446,10.105-24.621,15.24l0.214,0.371c8.535-4.512,17.005-9.137,25.508-13.703l25.403-13.886
		c16.929-9.266,33.756-18.71,50.64-28.057c16.849-9.407,33.71-18.793,50.467-28.358c5.312-3.068,10.626-6.131,15.926-9.218
		c-4.714,3.925-9.41,7.871-14.109,11.813c-14.72,12.475-29.306,25.109-43.908,37.724c-14.557,12.669-29.187,25.251-43.685,37.991
		l-21.736,19.121c-7.199,6.429-14.442,12.807-21.601,19.284l0.275,0.328c7.622-5.926,15.16-11.951,22.741-17.924l22.606-18.086
		c15.064-12.065,29.995-24.288,44.999-36.424c14.96-12.189,29.934-24.361,44.776-36.69c4.699-3.943,9.4-7.883,14.084-11.844
		c-3.961,4.684-7.901,9.385-11.844,14.084c-12.33,14.841-24.501,29.816-36.691,44.775c-12.136,15.004-24.359,29.935-36.424,44.999
		l-18.086,22.606c-5.973,7.581-11.998,15.12-17.924,22.741l0.328,0.275c6.477-7.159,12.855-14.402,19.283-21.601l19.122-21.737
		c12.74-14.498,25.322-29.128,37.99-43.685c12.615-14.602,25.249-29.189,37.724-43.908c3.942-4.699,7.888-9.395,11.813-14.109
		c-3.087,5.3-6.151,10.615-9.218,15.927c-9.566,16.757-18.951,33.618-28.358,50.467c-9.346,16.883-18.79,33.71-28.057,50.64
		l-13.886,25.403c-4.566,8.504-9.191,16.974-13.703,25.508l0.371,0.214c5.135-8.175,10.158-16.415,15.239-24.621l15.057-24.727
		c10.028-16.49,19.879-33.082,29.827-49.618c9.888-16.571,19.797-33.13,29.526-49.792c3.067-5.312,6.137-10.622,9.184-15.946
		c-2.12,5.756-4.214,11.521-6.312,17.285c-6.51,18.164-12.826,36.398-19.164,54.624c-6.273,18.25-12.651,36.461-18.837,54.743
		L179.674,440c-3.02,9.167-6.104,18.312-9.066,27.5l0.402,0.146c3.637-8.942,7.154-17.93,10.733-26.893l10.534-26.966
		c7.013-17.981,13.832-36.031,20.758-54.044c6.86-18.036,13.743-36.064,20.432-54.163c2.086-5.733,4.177-11.465,6.242-17.207
		c-1.082,6.005-2.122,12.018-3.182,18.027c-3.257,19.018-6.31,38.072-9.387,57.122c-3.009,19.062-6.128,38.104-9.045,57.182
		l-4.36,28.62c-1.382,9.552-2.831,19.093-4.152,28.656l0.422,0.074c2.029-9.438,3.931-18.899,5.9-28.349l5.692-28.385
		c3.783-18.925,7.365-37.886,11.057-56.827c3.625-18.953,7.272-37.903,10.716-56.888c1.054-5.979,2.127-11.954,3.16-17.937
		c-0.022,6.071-0.003,12.142-0.003,18.214c0.095,19.295,0.397,38.589,0.675,57.884c0.347,19.295,0.582,38.589,1.022,57.884
		l0.676,28.942c0.297,9.647,0.528,19.295,0.887,28.942h0.428c0.36-9.647,0.59-19.295,0.888-28.942l0.676-28.942
		c0.44-19.295,0.675-38.59,1.022-57.884c0.278-19.295,0.58-38.59,0.675-57.884c-0.001-6.071,0.019-12.142-0.003-18.214
		c1.032,5.983,2.106,11.958,3.16,17.937c3.444,18.985,7.092,37.934,10.716,56.888c3.693,18.941,7.274,37.902,11.058,56.827
		l5.691,28.385c1.969,9.449,3.87,18.91,5.9,28.349l0.422-0.074c-1.321-9.563-2.769-19.104-4.152-28.656l-4.36-28.62
		c-2.917-19.078-6.037-38.12-9.045-57.182c-3.077-19.05-6.13-38.104-9.387-57.122c-1.06-6.009-2.1-12.022-3.182-18.027
		c2.065,5.741,4.156,11.473,6.242,17.207c6.689,18.099,13.571,36.127,20.432,54.163c6.926,18.012,13.746,36.063,20.758,54.044
		l10.534,26.966c3.579,8.964,7.095,17.951,10.733,26.893l0.402-0.146c-2.962-9.189-6.045-18.333-9.065-27.5l-9.263-27.428
		c-6.186-18.282-12.565-36.493-18.837-54.743c-6.338-18.226-12.654-36.461-19.164-54.624c-2.099-5.764-4.192-11.529-6.312-17.285
		c3.047,5.324,6.117,10.634,9.184,15.946c9.73,16.662,19.638,33.221,29.527,49.792c9.948,16.536,19.799,33.129,29.828,49.618
		l15.056,24.727c5.081,8.206,10.104,16.446,15.239,24.621l0.371-0.214c-4.512-8.535-9.137-17.005-13.703-25.508l-13.886-25.403
		c-9.267-16.93-18.71-33.757-28.057-50.64c-9.407-16.849-18.792-33.71-28.358-50.467c-3.067-5.312-6.13-10.626-9.218-15.926
		c3.924,4.714,7.871,9.41,11.813,14.109c12.475,14.72,25.109,29.307,37.724,43.908c12.669,14.557,25.251,29.187,37.99,43.685
		l19.121,21.737c6.429,7.199,12.807,14.441,19.284,21.601l0.328-0.275c-5.926-7.621-11.951-15.16-17.924-22.741l-18.086-22.606
		c-12.065-15.064-24.288-29.995-36.424-44.999c-12.189-14.959-24.361-29.934-36.691-44.775c-3.943-4.699-7.882-9.4-11.843-14.084
		c4.684,3.961,9.385,7.9,14.084,11.844c14.842,12.33,29.816,24.501,44.776,36.69c15.004,12.136,30.333,24.359,45.396,36.424
		l22.208,18.086c7.581,5.973,15.12,11.998,22.741,17.924l0.275-0.328c-7.159-6.477-14.402-12.854-21.6-19.284l-21.737-19.121
		c-14.498-12.74-29.128-25.322-43.685-37.991c-14.602-12.615-29.189-25.249-43.908-37.724c-4.699-3.942-9.395-7.888-14.109-11.813
		c5.3,3.087,10.615,6.15,15.926,9.218c16.758,9.565,33.618,18.951,50.467,28.358c16.884,9.347,33.711,18.791,50.64,28.057
		l25.403,13.886c8.504,4.566,16.974,9.191,25.508,13.703l0.214-0.371c-8.175-5.135-16.415-10.158-24.621-15.24l-24.726-15.056
		c-16.49-10.028-33.082-19.879-49.618-29.827c-16.571-9.888-33.13-19.797-49.792-29.526c-5.312-3.067-10.622-6.137-15.946-9.184
		c5.756,2.12,11.522,4.214,17.286,6.312c18.164,6.51,36.398,12.826,54.624,19.164c18.25,6.273,36.462,12.651,54.743,18.837
		L440,320.327c9.167,3.02,18.312,6.103,27.5,9.065l0.146-0.403c-8.942-3.637-17.93-7.153-26.893-10.732l-26.965-10.534
		c-17.981-7.013-36.032-13.832-54.044-20.758c-18.036-6.86-36.064-13.743-54.163-20.432c-5.734-2.086-11.466-4.177-17.207-6.242
		c6.005,1.082,12.018,2.122,18.027,3.182c19.018,3.257,38.072,6.31,57.122,9.387c19.062,3.008,38.104,6.128,57.182,9.045l28.62,4.36
		c9.552,1.382,19.093,2.831,28.656,4.152l0.074-0.422c-9.438-2.029-18.899-3.931-28.348-5.899l-28.385-5.691
		c-18.925-3.784-37.886-7.365-56.828-11.058c-18.953-3.624-37.902-7.272-56.888-10.716c-5.979-1.054-11.954-2.127-17.937-3.159
		c6.071,0.022,12.142,0.003,18.213,0.003C327.179,253.379,346.474,253.077,365.768,252.799z"/>
</g>
<g id="Shopping_Bags_00000127009224774292825900000015912018256065199755_">
	<g id="Shopping_Bags">
		<g id="Bag_00000041288791491695313570000009231145493001921417_">
			<path style="fill:#263238;" d="M275.359,169.674l1.237-13.923l-112.881,64.812l12.414,5.219l4.832,8.383l112.881-64.822
				L275.359,169.674z M197.201,218.986c-1.799,1.012-3.124,0.279-2.954-1.64c0.17-1.919,1.77-4.308,3.57-5.33
				c1.801-1.033,3.126-0.3,2.954,1.64C200.6,215.585,199,217.974,197.201,218.986z M250.126,188.884
				c-1.799,1.012-3.124,0.279-2.954-1.64c0.17-1.919,1.77-4.308,3.57-5.33c1.812-1.033,3.136-0.3,2.954,1.64
				C253.525,185.484,251.936,187.872,250.126,188.884z"/>
			<polygon style="fill:#37474F;" points="275.364,169.672 293.845,169.346 268.125,184.117 276.598,155.751 			"/>
			<polygon id="XMLID_00000008852784651251426030000004022869356599551127_" style="opacity:0.15;" points="275.364,169.672 
				274.603,180.391 268.125,184.117 276.598,155.751 			"/>
			<path style="fill:#455A64;" d="M180.962,234.165l-34.801,159.807l133.97-77.111l13.712-147.518L180.962,234.165z
				 M213.531,231.111c-1.728,0.977-3.112,0.161-3.112-1.824c0-1.986,1.395-4.4,3.112-5.388c1.717-0.998,3.112-0.182,3.112,1.825
				C216.643,227.719,215.248,230.134,213.531,231.111z M266.017,200.811c-1.717,0.977-3.112,0.161-3.112-1.824
				c0-1.985,1.395-4.4,3.112-5.387c1.717-0.998,3.112-0.183,3.112,1.824C269.13,197.42,267.734,199.835,266.017,200.811z"/>
			<polygon id="XMLID_00000083053162364753669860000005735600360829098412_" style="fill:#37474F;" points="180.962,234.16 
				146.157,393.975 97.532,357.627 163.715,220.565 176.123,225.785 			"/>
			<polygon id="XMLID_00000120523919683219787400000016810736044827858316_" style="opacity:0.15;" points="180.962,234.16 
				146.157,393.975 97.532,357.627 163.715,220.565 176.123,225.785 			"/>
			<polygon id="XMLID_00000047038449124442261000000011722802126578602635_" style="fill:#263238;" points="97.532,357.627 
				131.248,355.002 146.157,393.975 			"/>
			<polygon id="XMLID_00000124844823200326358370000011227067023841050555_" style="fill:#37474F;" points="131.248,355.002 
				176.125,225.786 180.962,234.16 146.157,393.975 			"/>
		</g>
		<g id="Bag_00000108300699884296785160000018169913141147792284_">
			<g>
				<path style="fill:#BA68C8;" d="M297.487,177.447l0.004-7.099l-112.988,65.23l20.166,3.413l1.456,6.402l-2.175,200.935
					l112.989-65.241l2.175-200.935L297.487,177.447z M223.536,235.878c-1.717,0.977-3.112,0.161-3.112-1.824
					c0-1.986,1.395-4.4,3.112-5.388c1.728-0.998,3.113-0.172,3.113,1.824S225.253,234.901,223.536,235.878z M276.142,205.365
					c-1.717,0.977-3.112,0.161-3.112-1.824c0-1.985,1.395-4.4,3.112-5.387c1.717-0.998,3.112-0.172,3.112,1.824
					C279.254,201.974,277.859,204.389,276.142,205.365z"/>
				<path style="opacity:0.3;" d="M297.487,177.447l0.004-7.099l-112.988,65.23l20.166,3.413l1.456,6.402l-2.175,200.935
					l112.989-65.241l2.175-200.935L297.487,177.447z M223.536,235.878c-1.717,0.977-3.112,0.161-3.112-1.824
					c0-1.986,1.395-4.4,3.112-5.388c1.728-0.998,3.113-0.172,3.113,1.824S225.253,234.901,223.536,235.878z M276.142,205.365
					c-1.717,0.977-3.112,0.161-3.112-1.824c0-1.985,1.395-4.4,3.112-5.387c1.717-0.998,3.112-0.172,3.112,1.824
					C279.254,201.974,277.859,204.389,276.142,205.365z"/>
			</g>
			<path style="fill:#BA68C8;" d="M206.124,245.393l-2.175,200.935l112.989-65.241l2.175-200.935L206.124,245.393z M237.403,247.39
				c-1.717,0.977-3.112,0.161-3.112-1.824c0-1.985,1.395-4.4,3.112-5.388c1.717-0.998,3.112-0.172,3.112,1.824
				S239.12,246.413,237.403,247.39z M289.997,216.877c-1.717,0.977-3.112,0.161-3.112-1.824c0-1.986,1.395-4.4,3.112-5.388
				c1.728-0.998,3.112-0.172,3.112,1.824C293.11,213.485,291.725,215.9,289.997,216.877z"/>
			<g>
				<polygon id="XMLID_00000083803084833384301460000014484431592471948703_" style="fill:#BA68C8;" points="146.525,409.839 
					178.853,404.396 203.954,446.326 				"/>
				<polygon id="XMLID_00000106121930588221942590000009312506535448495750_" style="opacity:0.3;" points="146.525,409.839 
					178.853,404.396 203.954,446.326 				"/>
			</g>
			<g>
				<polygon id="XMLID_00000043429990383630782550000000616244644242694843_" style="fill:#BA68C8;" points="178.853,404.396 
					204.673,238.987 206.122,245.39 203.954,446.326 				"/>
				<polygon id="XMLID_00000035494707582518582960000012368162253338377366_" style="opacity:0.1;" points="178.853,404.396 
					204.673,238.987 206.122,245.39 203.954,446.326 				"/>
			</g>
			<g>
				<polygon id="XMLID_00000056404499552928695530000018425985237878482564_" style="fill:#BA68C8;" points="184.5,235.58 
					204.673,238.987 178.853,404.396 146.525,409.839 				"/>
				<polygon id="XMLID_00000011020215388950682670000015915050270290222253_" style="opacity:0.2;" points="184.5,235.58 
					204.673,238.987 178.853,404.396 146.525,409.839 				"/>
			</g>
			<polygon style="opacity:0.5;fill:#BA68C8;" points="297.491,170.345 290.396,196.733 319.11,180.155 297.491,177.442 			"/>
			<polygon style="opacity:0.5;fill:#BA68C8;" points="297.491,177.442 297.493,192.636 319.11,180.155 			"/>
		</g>
		<g id="Bag">
			<g>
				<polygon id="XMLID_4558_" style="fill:#BA68C8;" points="378.098,378.677 338.361,192.739 326.959,191.54 320.941,182.703 
					326.095,348.652 				"/>
				<polygon id="XMLID_4556_" style="opacity:0.4;fill:#FFFFFF;" points="378.098,378.677 338.361,192.739 326.959,191.54 
					320.941,182.703 326.095,348.652 				"/>
				<polygon style="opacity:0.2;fill:#BA68C8;" points="326.959,191.54 326.718,199.461 319.788,203.462 320.942,182.705 				"/>
			</g>
			<g>
				<path style="fill:#BA68C8;" d="M212.007,245.597l5.16,165.946l108.923-62.892l-5.147-165.946L212.007,245.597z M244.52,249.117
					c-1.719,0.983-3.106,0.166-3.106-1.822s1.387-4.4,3.106-5.394c1.718-0.983,3.116-0.176,3.116,1.832
					C247.636,245.732,246.238,248.144,244.52,249.117z M297.123,218.613c-1.718,0.973-3.116,0.155-3.116-1.833
					c0-1.977,1.398-4.389,3.116-5.383c1.719-0.994,3.116-0.176,3.106,1.822C300.229,215.217,298.842,217.629,297.123,218.613z"/>
				<path style="opacity:0.2;fill:#FFFFFF;" d="M212.007,245.597l5.16,165.946l108.923-62.892l-5.147-165.946L212.007,245.597z
					 M244.52,249.117c-1.719,0.983-3.106,0.166-3.106-1.822s1.387-4.4,3.106-5.394c1.718-0.983,3.116-0.176,3.116,1.832
					C247.636,245.732,246.238,248.144,244.52,249.117z M297.123,218.613c-1.718,0.973-3.116,0.155-3.116-1.833
					c0-1.977,1.398-4.389,3.116-5.383c1.719-0.994,3.116-0.176,3.106,1.822C300.229,215.217,298.842,217.629,297.123,218.613z"/>
			</g>
			<g>
				<polygon id="XMLID_4541_" style="fill:#BA68C8;" points="212.008,245.595 224.49,247.047 229.428,255.631 269.165,441.568 
					217.162,411.545 				"/>
				<polygon id="XMLID_4540_" style="opacity:0.55;fill:#FFFFFF;" points="212.008,245.595 224.49,247.047 229.428,255.631 
					269.165,441.568 217.162,411.545 				"/>
				<polygon style="opacity:0.2;fill:#BA68C8;" points="243.164,402.85 224.49,247.047 212.008,245.595 217.162,411.545 				"/>
				<polygon style="opacity:0.4;fill:#BA68C8;" points="269.165,441.568 243.164,402.85 217.162,411.545 				"/>
			</g>
			<path style="fill:#BA68C8;" d="M338.361,192.739l-108.933,62.892l39.737,185.937l108.933-62.892L338.361,192.739z
				 M264.486,259.673c-1.572,0.907-3.088,0.148-3.387-1.695s0.731-4.084,2.301-5.006c1.57-0.921,3.086-0.163,3.387,1.695
				C267.088,256.526,266.058,258.767,264.486,259.673z M317.832,229.074c-1.476,0.896-3.073,0.146-3.566-1.674
				c-0.493-1.82,0.301-4.034,1.774-4.944c1.473-0.91,3.069-0.161,3.566,1.674C320.102,225.965,319.308,228.178,317.832,229.074z"/>
			<path style="opacity:0.7;fill:#FFFFFF;" d="M338.361,192.739l-108.933,62.892l39.737,185.937l108.933-62.892L338.361,192.739z
				 M264.486,259.673c-1.572,0.907-3.088,0.148-3.387-1.695s0.731-4.084,2.301-5.006c1.57-0.921,3.086-0.163,3.387,1.695
				C267.088,256.526,266.058,258.767,264.486,259.673z M317.832,229.074c-1.476,0.896-3.073,0.146-3.566-1.674
				c-0.493-1.82,0.301-4.034,1.774-4.944c1.473-0.91,3.069-0.161,3.566,1.674C320.102,225.965,319.308,228.178,317.832,229.074z"/>
		</g>
		<g id="Hand">
			<path style="fill:#FFA8A7;" d="M280.887,68.681c-12.716,9.171-17.647,10.963-26.656,22.941
				c-9.009,11.979-14.986,19.384-19.512,26.175c-4.526,6.791-7.233,18.642-11.365,28.143c-3.042,6.994-7.076,14.605-7.076,16.111
				c0,2.232,2.157,4.32,7.813,3.87c2.387-0.19,3.845-1.007,4.683-1.586c0,0,0.175,1.297,1.201,3.793
				c1.496,3.638,6.307,11.136,8.876,12.73c2.569,1.594,5.968,6.344,11.133,4.808c5.165-1.536,6.687-4.808,6.687-4.808
				s2.168,2.682,6.735,1.093c4.568-1.589,6.445-5.814,6.445-5.814s2.332,2.377,6.4,0.954c4.068-1.423,5.928-5.761,5.928-5.761
				s3.452,1.319,6.38-1.45c2.928-2.769,2.733-5.002,3.511-9.873c0.779-4.871,0.132-6.444-2.399-11.224c0,0,1.197-5.213,2.519-11.462
				c1.712-8.093-0.491-14.58,1.508-17.48c1.018-1.477,5.948-4.969,10.405-7.239c7.041-3.586,57.918-29.658,57.918-29.658
				s12.707-8.01-0.339-34.147c-11.572-23.183-30.027-18.308-30.027-18.308S288.607,63.113,280.887,68.681z"/>
			<path style="fill:#F28F8F;" d="M366.294,60.655c-0.304,5.907-2.31,11.486-9.726,17.017c-9.368,6.986-54.143,29.691-59.45,31.345
				c-3.855,1.201-8.824-5.465-8.189-0.565c0.635,4.9,4.446,9.867,3.889,14.873l0.003,0c0.065-1.44,0.284-2.623,0.878-3.484
				c1.018-1.477,5.948-4.969,10.405-7.239c7.041-3.586,57.918-29.658,57.918-29.658S370.74,77.428,366.294,60.655z"/>
			<path style="fill:#F28F8F;" d="M280.029,167.482c1.005-3.434,1.341-7.049,1.14-10.621c-0.3-5.319-1.792-10.553-4.217-15.297
				c-1.289-2.522-3.009-5.055-5.641-6.101c-2.633-1.046-6.281,0.162-6.85,2.937c-2.829-1.359-6.373,0.163-8.285,2.653
				c-1.912,2.49-2.568,5.696-3.104,8.788c-1.561-0.375-3.135,0.66-4.137,1.915c-1.002,1.254-1.666,2.765-2.76,3.94
				c-0.184,0.198-0.394,0.393-0.658,0.449c-0.539,0.114-1.007-0.387-1.257-0.877c-0.799-1.562-0.669-3.463-0.084-5.117
				c0.585-1.654,1.583-3.123,2.513-4.61c1.331-2.127,5.049-10.964,3.667-13.639c-2.333,5.832-5.23,7.41-5.693,8.876
				c-3.482,10.998-7.99,16.881-15.769,23.559c0,0,0.175,1.298,1.201,3.793c1.495,3.638,6.307,11.136,8.876,12.73
				c2.569,1.594,5.968,6.343,11.133,4.808c5.165-1.536,6.687-4.808,6.687-4.808s2.168,2.682,6.735,1.093
				c4.568-1.589,6.445-5.814,6.445-5.814s1.909,1.931,5.277,1.256C277.271,174.309,278.995,171.016,280.029,167.482z"/>
			<path style="fill:#F28F8F;" d="M271.042,118.736c-0.165-0.213-0.346-0.046-0.271,0.18c1.098,3.333,2.194,6.692,2.124,10.247
				c-0.031,1.553-0.294,3.124-0.824,4.587c-0.254,0.701-0.562,1.387-0.927,2.037c-0.41,0.729-1.111,1.409-1.333,2.218
				c-0.169,0.618,0.534,0.914,1.016,0.772c0.794-0.235,1.316-1.335,1.709-2.006c0.406-0.694,0.751-1.421,1.03-2.175
				c0.592-1.594,0.924-3.259,1.01-4.956C274.775,125.693,273.453,121.847,271.042,118.736z"/>
			<g>
				<g>
					<path style="fill:#B16668;" d="M241.584,129.384c1.967,3.627,4.298,7.911,3.21,12.291c-2.625,9.09-8.416,17.091-16.02,22.66
						c2.474-2.327,4.809-4.782,6.879-7.438c3.106-3.973,5.587-8.395,7.309-13.136c0.582-1.568,1.178-3.058,1.166-4.734
						C244.161,135.695,242.681,132.507,241.584,129.384L241.584,129.384z"/>
				</g>
				<g>
					<path style="fill:#B16668;" d="M249.873,118.269c2.846,7.875,1.614,16.865-4.994,22.507c0,0-0.708-0.834-0.708-0.834
						C250.8,134.813,252.297,126.012,249.873,118.269L249.873,118.269z"/>
				</g>
			</g>
		</g>
		<g id="Cord">
			<g>
				<path style="fill:#F0F0F0;" d="M263.944,257.493c-0.413,0-0.8-0.258-0.943-0.669l-21.194-60.454
					c-5.506-15.704,0.958-33.141,15.369-41.461c7.354-4.245,16.136-4.989,24.1-2.039c7.962,2.95,14.141,9.237,16.952,17.249
					l19.493,55.546c0.183,0.521-0.091,1.092-0.612,1.274c-0.521,0.188-1.092-0.091-1.274-0.612l-19.493-55.546
					c-2.614-7.448-8.358-13.293-15.761-16.035c-7.399-2.744-15.568-2.052-22.404,1.895c-13.579,7.839-19.67,24.27-14.482,39.066
					l21.194,60.454c0.183,0.522-0.092,1.092-0.612,1.274C264.165,257.476,264.053,257.493,263.944,257.493z"/>
			</g>
			<g>
				<path style="fill:#E0E0E0;" d="M244.483,245.313c-0.486,0-0.912-0.354-0.987-0.85l-7.026-46.134
					c-2.696-17.697,5.58-34.917,21.084-43.868c6.582-3.797,14.601-4.104,21.45-0.813c6.851,3.29,11.625,9.74,12.772,17.253
					l6.331,41.689c0.083,0.546-0.292,1.056-0.838,1.139c-0.542,0.085-1.056-0.292-1.139-0.838l-6.331-41.688
					c-1.064-6.961-5.314-12.703-11.662-15.752c-6.349-3.051-13.488-2.779-19.584,0.742c-14.785,8.536-22.678,24.957-20.107,41.835
					l7.026,46.134c0.083,0.546-0.292,1.056-0.838,1.139C244.583,245.309,244.532,245.313,244.483,245.313z"/>
			</g>
			<g>
				<path style="fill:#F0F0F0;" d="M289.85,200.658l-1.94,1.12l-1.79-29.03c-0.4-6.6-4.12-12.41-9.95-15.54
					c-5.83-3.13-12.73-3.02-18.45,0.29c-15.02,8.67-23.69,24.81-22.63,42.12l1.93,31.54l-1.94,1.12l-1.99-32.54
					c-1.1-18.07,7.95-34.92,23.63-43.98c6.33-3.65,13.96-3.77,20.4-0.31c6.44,3.46,10.55,9.88,11,17.18L289.85,200.658z"/>
			</g>
			<g>
				<path style="fill:#E0E0E0;" d="M223.355,231.743c-0.056,0-0.113-0.005-0.171-0.015c-0.544-0.094-0.909-0.61-0.815-1.155
					l5.174-30.088c3.223-18.747,14.52-34.954,30.995-44.467c5.357-3.094,11.84-2.816,16.914,0.719
					c5.076,3.536,7.579,9.52,6.533,15.618l-4.813,28.059c-0.093,0.544-0.607,0.914-1.154,0.816c-0.545-0.093-0.91-0.61-0.816-1.154
					l4.813-28.059c0.913-5.325-1.273-10.551-5.706-13.64c-4.432-3.087-10.092-3.329-14.771-0.627
					c-15.959,9.214-26.902,24.914-30.024,43.074l-5.174,30.088C224.255,231.4,223.833,231.743,223.355,231.743z"/>
			</g>
			<g>
				<path style="fill:#F0F0F0;" d="M277.93,158.378l-7.69,27.7l-2.48,1.43l8.24-29.67c0.75-2.7-0.16-5.45-2.38-7.17
					c-2.22-1.72-5.11-1.91-7.53-0.51c-23.21,13.4-39.95,35-47.12,60.81l-1.56,5.61l-2.47,1.43l2.1-7.57
					c7.32-26.33,24.38-48.35,48.05-62.01c3.14-1.82,6.88-1.57,9.76,0.66C277.72,151.318,278.9,154.868,277.93,158.378z"/>
			</g>
			<g>
				<path style="fill:#E0E0E0;" d="M197.508,216.494c-0.186,0-0.374-0.052-0.542-0.16c-0.464-0.3-0.597-0.919-0.297-1.383
					l5.63-8.716c15.976-24.733,37.899-45.589,63.401-60.313c2.007-1.158,4.423-0.807,6.017,0.869
					c1.596,1.676,1.824,4.108,0.569,6.052l-21.104,32.696c-0.3,0.465-0.92,0.598-1.382,0.298c-0.464-0.299-0.598-0.918-0.298-1.382
					l21.104-32.696c0.918-1.423,0.392-2.822-0.338-3.589c-0.729-0.769-2.104-1.36-3.568-0.516
					c-25.229,14.566-46.918,35.198-62.722,59.667l-5.63,8.716C198.157,216.333,197.836,216.494,197.508,216.494z"/>
			</g>
		</g>
		<g id="Fingers">
			<path style="fill:#FFA8A7;" d="M249.985,185.666c5.165-1.536,6.687-4.808,6.687-4.808s2.168,2.682,6.735,1.093
				c4.568-1.589,6.445-5.814,6.445-5.814s2.332,2.377,6.4,0.954c4.068-1.423,5.928-5.761,5.928-5.761s3.452,1.319,6.38-1.45
				c2.928-2.769,2.733-5.002,3.511-9.873c0.779-4.871,0.132-6.444-2.399-11.224c-2.724-4.988-6.566-11.234-8.96-12.009
				c-2.394-0.776-3.978,0.96-3.978,0.96s-0.983-1.849-2.16-3.023c-1.472-1.469-4.183-1.251-5.88,1.288
				c-1.697,2.539-2.16,4.994-1.525,6.967c-2.775-3.848-5.682-3.961-7.924-1.418c-2.243,2.543-3.784,7.424-2.407,14.601
				c-3.002-1.349-6.79,1.377-8.093,4.593c-1.303,3.216-3.604,10.489-3.604,10.489S244.82,187.202,249.985,185.666z"/>
			<path style="fill:#F28F8F;" d="M292.071,160.007c0.172-1.079,0.271-1.99,0.298-2.816c-0.582,1.642-1.444,3.285-2.971,4.092
				c-1.623,0.858-4.105,0.183-4.455-1.62c0.025,2.067-0.969,4.033-2.283,5.63c-1.206,1.467-3.018,2.782-4.864,2.337
				c-2.171-0.523-3.068-3.06-3.61-5.226c-0.615,2.578-1.525,5.155-3.222,7.19c-1.697,2.036-4.303,3.458-6.939,3.186
				c-2.636-0.272-5.08-2.566-5.004-5.215c-0.063,2.473-0.72,4.987-2.222,6.952c-1.528,1.998-3.946,3.561-6.442,2.581
				c-2.285-0.897-4.086-3.112-4.271-5.591c-0.069-0.925,0.048-1.889-0.136-2.782c-0.479,1.466-0.808,2.506-0.808,2.506
				s-0.321,15.971,4.844,14.435c5.165-1.536,6.687-4.808,6.687-4.808s2.168,2.682,6.735,1.093c4.568-1.589,6.445-5.814,6.445-5.814
				s2.332,2.377,6.4,0.954s5.928-5.762,5.928-5.762s3.452,1.319,6.38-1.45C291.488,167.111,291.292,164.878,292.071,160.007z"/>
			<g>
				<path style="fill:#B16668;" d="M276.852,137.165c3.488,4.941,6.522,10.649,8.458,16.449c0.788,3.04,0.231,6.152-0.384,9.13
					c-0.67,2.932-1.405,5.881-2.746,8.587c0.475-1.424,0.814-2.878,1.107-4.342c0.759-4.256,1.963-8.816,0.968-13.086
					c-1.832-5.63-5.146-10.729-7.846-15.996L276.852,137.165z"/>
			</g>
			<g>
				<path style="fill:#B16668;" d="M267.168,142.966c3.195,4.956,5.371,10.509,7.01,16.166c0.936,4.462-0.873,8.925-2.378,13.05
					c-0.585,1.352-1.203,2.69-1.949,3.956c0.522-1.372,1.036-2.738,1.445-4.139c1.106-4.035,2.691-8.525,1.814-12.632
					c-0.542-2.415-1.89-5.873-2.676-8.276C269.459,148.335,268.444,145.602,267.168,142.966L267.168,142.966z"/>
			</g>
			<g>
				<path style="fill:#B16668;" d="M256.837,156.149c3.984,2.539,3.023,8.122,2.877,12.15c-0.378,4.302-1.265,8.616-3.042,12.559
					c0.949-4.207,1.605-8.403,1.952-12.652C258.744,164.193,260.09,159.262,256.837,156.149L256.837,156.149z"/>
			</g>
			<g>
				<path style="fill:#B16668;" d="M289.671,148.783c-1.652-2.792-3.332-5.577-5.286-8.148c-1.814-2.428-4.423-5.395-7.381-2.654
					c0,0-0.35,0.358-0.35,0.358l-0.245-0.433c-1.414-2.521-3.385-5.1-6.336-2.76c-1.929,1.858-3.228,5.035-2.423,7.665
					c0,0,0.967,2.965,0.967,2.965c-2.029-2.784-5.139-7.88-8.78-4.058c-3.43,3.822-3.373,9.532-2.525,14.34l0.165,0.899
					l-0.837-0.367c-2.961-1.202-6.164,1.429-7.403,4.038c-0.543,1.275-1.56,4.243-2.067,5.564
					c-1.581,3.675-2.103,7.625-1.599,11.591c0.128,1.317,0.291,2.634,0.595,3.927c-0.728-2.56-1.044-5.215-1.146-7.887
					c-0.072-2.689,0.611-5.355,1.539-7.844c0.488-1.401,1.43-4.35,1.95-5.68c0.857-1.91,2.355-3.53,4.282-4.421
					c1.268-0.611,2.864-0.77,4.245-0.169l-0.672,0.532c-0.948-5.104-1.004-11.171,2.687-15.277c2.869-3.144,6.523-1.334,8.53,1.706
					c0,0-0.892,0.451-0.892,0.451c-0.892-3.144,0.514-6.522,2.788-8.695c3.451-2.667,6.008-0.012,7.583,3.135
					c0,0-0.595-0.075-0.595-0.075c3.39-3.009,6.343-0.07,8.284,2.883C286.605,143.054,288.195,145.892,289.671,148.783
					L289.671,148.783z"/>
			</g>
		</g>
	</g>
</g>
<g id="Logo_00000071531494866898130340000006191386138018305969_">
	<path id="Logo" style="fill:#FFFFFF;" d="M341.242,295.575c-3.616-17.241-14.934-27.374-28.196-27.374
		c-4.977,0-10.227,1.427-15.448,4.441c-19.131,11.045-30.609,39.22-25.636,62.931c3.616,17.241,14.934,27.374,28.196,27.374
		c4.977,0,10.227-1.427,15.448-4.441C334.737,347.461,346.214,319.286,341.242,295.575z M331.899,329.524
		c-4.341,10.657-11.194,19.102-19.297,23.78c-4.179,2.413-8.366,3.636-12.444,3.636c-10.842,0-19.393-8.66-22.316-22.6
		c-2.162-10.308-0.932-21.927,3.463-32.716c4.341-10.657,11.194-19.102,19.297-23.78c4.179-2.413,8.366-3.636,12.444-3.636
		c10.842,0,19.393,8.66,22.316,22.6C337.524,307.116,336.294,318.735,331.899,329.524z M302.461,295.831
		c-8.798,5.079-14.076,18.036-11.789,28.94c2.287,10.904,11.272,15.625,20.07,10.546c8.798-5.079,14.076-18.036,11.789-28.94
		C320.245,295.474,311.259,290.752,302.461,295.831z"/>
</g>
<g id="Tag_00000155145361377568046490000011837395778184451979_">
	<g id="Tag">
		<g id="Discount">
			<g id="Label_00000145047012037642716470000005518870954389691529_">
				<g>
					<path style="fill:#BA68C8;" d="M112.578,86.98v45.065l61.301,35.395l1.759-1.018l15.611-13.516l-15.611-31.548l-61.301-35.395
						L112.578,86.98z M177.423,148.715c-0.49-0.012-1.05-0.162-1.631-0.498c-2.065-1.191-3.746-4.102-3.746-6.494
						c0-0.665,0.142-1.207,0.376-1.635c0.49,0.01,1.033,0.158,1.612,0.492c2.075,1.201,3.746,4.102,3.746,6.494
						C177.78,147.742,177.656,148.285,177.423,148.715z"/>
				</g>
				<g>
					<path style="fill:#BA68C8;" d="M112.578,86.98v45.065l61.301,35.395l15.611-13.517l-15.611-31.548L112.578,86.98z
						 M170.287,142.741c0-2.382,1.681-3.353,3.747-2.161c2.075,1.201,3.746,4.102,3.746,6.494c0,2.392-1.671,3.362-3.746,2.162
						C171.968,148.044,170.287,145.133,170.287,142.741z"/>
				</g>
				<g style="opacity:0.3;">
					<path d="M170.287,142.741c0,2.392,1.681,5.303,3.747,6.494c1.505,0.865,2.791,0.6,3.389-0.52l0,0
						c-0.49-0.01-1.045-0.162-1.631-0.499c-2.066-1.191-3.747-4.102-3.747-6.494c0-0.663,0.144-1.201,0.375-1.624
						c-0.557-0.01-1.047,0.173-1.412,0.528C170.556,141.079,170.287,141.79,170.287,142.741z"/>
				</g>
				<g style="opacity:0.3;">
					<polygon style="fill:#FFFFFF;" points="112.578,86.98 114.337,85.962 175.638,121.357 173.88,122.375 					"/>
				</g>
				<g style="opacity:0.15;">
					<polygon points="173.88,122.375 189.49,153.923 191.249,152.905 175.638,121.357 					"/>
				</g>
				<g style="opacity:0.3;">
					<polygon points="189.49,153.923 173.88,167.44 175.638,166.421 191.249,152.905 					"/>
				</g>
			</g>
			<path style="fill:#FAFAFA;" d="M137.225,122.987c1.23-0.93,1.846-2.83,1.846-5.701c0-1.924-0.284-3.745-0.852-5.461
				c-0.568-1.715-1.355-3.226-2.36-4.533c-1.006-1.306-2.135-2.322-3.389-3.046c-1.255-0.724-2.384-1.014-3.39-0.869
				c-1.006,0.146-1.792,0.748-2.36,1.808c-0.568,1.061-0.852,2.553-0.852,4.477c0,2.871,0.615,5.482,1.845,7.832
				c1.23,2.351,2.816,4.087,4.756,5.207C134.409,123.822,135.995,123.918,137.225,122.987z M131.352,115.976
				c-0.296-0.817-0.444-1.952-0.444-3.403c0-1.451,0.148-2.414,0.444-2.89c0.296-0.475,0.668-0.584,1.118-0.325
				c0.449,0.259,0.822,0.798,1.117,1.615c0.296,0.818,0.444,1.953,0.444,3.403c0,1.452-0.148,2.415-0.444,2.89
				c-0.295,0.477-0.668,0.584-1.117,0.325C132.02,117.332,131.648,116.794,131.352,115.976z M156.427,137.954
				c-0.568-1.716-1.355-3.227-2.36-4.533c-1.006-1.306-2.136-2.322-3.39-3.046c-1.255-0.724-2.384-1.013-3.39-0.868
				c-1.005,0.146-1.792,0.748-2.36,1.808c-0.568,1.061-0.852,2.553-0.852,4.477c0,2.871,0.615,5.482,1.846,7.832
				c1.23,2.351,2.815,4.087,4.756,5.207c1.94,1.12,3.525,1.215,4.756,0.285c1.23-0.93,1.845-2.831,1.845-5.702
				C157.279,141.49,156.995,139.67,156.427,137.954z M151.795,143.395c-0.296,0.476-0.669,0.584-1.118,0.325
				c-0.449-0.259-0.822-0.798-1.118-1.615c-0.297-0.818-0.444-1.952-0.444-3.403c0-1.451,0.147-2.415,0.444-2.89
				c0.295-0.476,0.668-0.584,1.118-0.325c0.449,0.259,0.822,0.799,1.118,1.616c0.295,0.818,0.444,1.953,0.444,3.403
				C152.239,141.956,152.09,142.919,151.795,143.395z M147.872,113.475l-16.965,23.331l4.476,2.557l16.965-23.331L147.872,113.475z"
				/>
		</g>
		<g>
			<path style="fill:#F0F0F0;" d="M205.407,204.528c-0.08,0-0.161-0.01-0.242-0.029c-0.536-0.134-0.862-0.676-0.73-1.212
				c8.243-33.148-27.796-56.554-29.334-57.533c-0.466-0.297-0.602-0.915-0.307-1.381c0.298-0.466,0.917-0.601,1.381-0.307
				c14.443,9.203,37.057,32.134,30.201,59.703C206.263,204.224,205.855,204.528,205.407,204.528z"/>
		</g>
	</g>
</g>
<g id="Stars_00000034788195807082328040000001206680584448243639_">
	<g id="Stars">
		<g>
			<path style="fill:#BA68C8;" d="M63.993,285.25l0.597,4.344l3.917,1.971c0.328,0.165,0.325,0.635-0.006,0.795l-3.947,1.91
				l-0.664,4.335c-0.056,0.363-0.504,0.505-0.758,0.24l-3.036-3.164l-4.328,0.708c-0.363,0.059-0.636-0.323-0.462-0.647l2.07-3.865
				l-2.01-3.897c-0.169-0.327,0.111-0.705,0.472-0.64l4.316,0.775l3.085-3.116C63.497,284.738,63.943,284.886,63.993,285.25z"/>
			<path style="opacity:0.6;fill:#FFFFFF;" d="M63.993,285.25l0.597,4.344l3.917,1.971c0.328,0.165,0.325,0.635-0.006,0.795
				l-3.947,1.91l-0.664,4.335c-0.056,0.363-0.504,0.505-0.758,0.24l-3.036-3.164l-4.328,0.708c-0.363,0.059-0.636-0.323-0.462-0.647
				l2.07-3.865l-2.01-3.897c-0.169-0.327,0.111-0.705,0.472-0.64l4.316,0.775l3.085-3.116
				C63.497,284.738,63.943,284.886,63.993,285.25z"/>
		</g>
		<g>
			<path style="fill:#BA68C8;" d="M54.494,170.5l4.239,3.475l5.266-1.522c0.441-0.128,0.837,0.306,0.67,0.734l-1.995,5.106
				l3.075,4.538c0.258,0.38-0.033,0.891-0.491,0.864l-5.472-0.32l-3.366,4.326c-0.282,0.363-0.857,0.244-0.974-0.2l-1.387-5.303
				l-5.155-1.864c-0.432-0.156-0.497-0.74-0.111-0.988l4.615-2.958l0.18-5.479C53.604,170.452,54.139,170.209,54.494,170.5z"/>
			<path style="opacity:0.6;fill:#FFFFFF;" d="M54.494,170.5l4.239,3.475l5.266-1.522c0.441-0.128,0.837,0.306,0.67,0.734
				l-1.995,5.106l3.075,4.538c0.258,0.38-0.033,0.891-0.491,0.864l-5.472-0.32l-3.366,4.326c-0.282,0.363-0.857,0.244-0.974-0.2
				l-1.387-5.303l-5.155-1.864c-0.432-0.156-0.497-0.74-0.111-0.988l4.615-2.958l0.18-5.479
				C53.604,170.452,54.139,170.209,54.494,170.5z"/>
		</g>
		<g>
			<path style="fill:#BA68C8;" d="M80.214,64.083l2.797,2.293l3.475-1.004c0.291-0.084,0.553,0.202,0.442,0.485l-1.317,3.369
				l2.029,2.995c0.17,0.251-0.021,0.588-0.324,0.57l-3.611-0.211l-2.221,2.855c-0.186,0.239-0.566,0.161-0.642-0.132l-0.915-3.5
				l-3.402-1.23c-0.285-0.103-0.328-0.488-0.073-0.652l3.046-1.952l0.119-3.615C79.627,64.051,79.98,63.89,80.214,64.083z"/>
			<path style="opacity:0.6;fill:#FFFFFF;" d="M80.214,64.083l2.797,2.293l3.475-1.004c0.291-0.084,0.553,0.202,0.442,0.485
				l-1.317,3.369l2.029,2.995c0.17,0.251-0.021,0.588-0.324,0.57l-3.611-0.211l-2.221,2.855c-0.186,0.239-0.566,0.161-0.642-0.132
				l-0.915-3.5l-3.402-1.23c-0.285-0.103-0.328-0.488-0.073-0.652l3.046-1.952l0.119-3.615C79.627,64.051,79.98,63.89,80.214,64.083
				z"/>
		</g>
		<g>
			<path style="fill:#BA68C8;" d="M431.163,280.148l1.407,3.856l3.974,1.027c0.333,0.086,0.423,0.517,0.152,0.729l-3.232,2.53
				l0.252,4.097c0.021,0.343-0.361,0.562-0.646,0.37l-3.405-2.292l-3.818,1.505c-0.32,0.126-0.646-0.169-0.551-0.5l1.128-3.947
				l-2.612-3.166c-0.219-0.265-0.038-0.666,0.305-0.679l4.102-0.147l2.204-3.462C430.608,279.778,431.045,279.825,431.163,280.148z"
				/>
			<path style="opacity:0.6;fill:#FFFFFF;" d="M431.163,280.148l1.407,3.856l3.974,1.027c0.333,0.086,0.423,0.517,0.152,0.729
				l-3.232,2.53l0.252,4.097c0.021,0.343-0.361,0.562-0.646,0.37l-3.405-2.292l-3.818,1.505c-0.32,0.126-0.646-0.169-0.551-0.5
				l1.128-3.947l-2.612-3.166c-0.219-0.265-0.038-0.666,0.305-0.679l4.102-0.147l2.204-3.462
				C430.608,279.778,431.045,279.825,431.163,280.148z"/>
		</g>
		<g>
			<path style="fill:#BA68C8;" d="M65.633,311.58l0.322,2.342l2.111,1.062c0.177,0.089,0.175,0.342-0.003,0.429l-2.128,1.03
				l-0.358,2.336c-0.03,0.196-0.271,0.272-0.409,0.129l-1.637-1.705l-2.333,0.382c-0.195,0.032-0.343-0.174-0.249-0.349l1.116-2.083
				l-1.084-2.101c-0.091-0.176,0.06-0.38,0.255-0.345l2.326,0.418l1.663-1.68C65.365,311.304,65.606,311.384,65.633,311.58z"/>
			<path style="opacity:0.6;fill:#FFFFFF;" d="M65.633,311.58l0.322,2.342l2.111,1.062c0.177,0.089,0.175,0.342-0.003,0.429
				l-2.128,1.03l-0.358,2.336c-0.03,0.196-0.271,0.272-0.409,0.129l-1.637-1.705l-2.333,0.382c-0.195,0.032-0.343-0.174-0.249-0.349
				l1.116-2.083l-1.084-2.101c-0.091-0.176,0.06-0.38,0.255-0.345l2.326,0.418l1.663-1.68
				C65.365,311.304,65.606,311.384,65.633,311.58z"/>
		</g>
		<g>
			<path style="fill:#BA68C8;" d="M231.878,467.15l2.123,0.623l1.717-1.395c0.144-0.117,0.359-0.018,0.365,0.167l0.063,2.211
				l1.858,1.201c0.156,0.101,0.128,0.336-0.046,0.399l-2.084,0.744l-0.568,2.138c-0.048,0.179-0.28,0.226-0.393,0.079l-1.351-1.752
				l-2.209,0.12c-0.185,0.01-0.301-0.196-0.197-0.35l1.249-1.826l-0.797-2.064C231.539,467.272,231.7,467.098,231.878,467.15z"/>
			<path style="opacity:0.6;fill:#FFFFFF;" d="M231.878,467.15l2.123,0.623l1.717-1.395c0.144-0.117,0.359-0.018,0.365,0.167
				l0.063,2.211l1.858,1.201c0.156,0.101,0.128,0.336-0.046,0.399l-2.084,0.744l-0.568,2.138c-0.048,0.179-0.28,0.226-0.393,0.079
				l-1.351-1.752l-2.209,0.12c-0.185,0.01-0.301-0.196-0.197-0.35l1.249-1.826l-0.797-2.064
				C231.539,467.272,231.7,467.098,231.878,467.15z"/>
		</g>
		<g>
			<path style="fill:#BA68C8;" d="M450.339,93.959l0.256,2.197l1.955,1.035c0.164,0.087,0.157,0.324-0.011,0.401l-2.011,0.922
				l-0.38,2.179c-0.032,0.183-0.259,0.249-0.385,0.113l-1.499-1.627l-2.19,0.312c-0.184,0.026-0.317-0.17-0.226-0.331l1.085-1.928
				l-0.973-1.987c-0.082-0.166,0.063-0.354,0.245-0.318l2.169,0.436l1.589-1.54C450.095,93.695,450.318,93.775,450.339,93.959z"/>
			<path style="opacity:0.6;fill:#FFFFFF;" d="M450.339,93.959l0.256,2.197l1.955,1.035c0.164,0.087,0.157,0.324-0.011,0.401
				l-2.011,0.922l-0.38,2.179c-0.032,0.183-0.259,0.249-0.385,0.113l-1.499-1.627l-2.19,0.312c-0.184,0.026-0.317-0.17-0.226-0.331
				l1.085-1.928l-0.973-1.987c-0.082-0.166,0.063-0.354,0.245-0.318l2.169,0.436l1.589-1.54
				C450.095,93.695,450.318,93.775,450.339,93.959z"/>
		</g>
		<g>
			<path style="fill:#BA68C8;" d="M93.508,399.202l0.145,3.328l2.824,1.767c0.237,0.148,0.201,0.503-0.061,0.601l-3.12,1.167
				l-0.808,3.232c-0.068,0.271-0.417,0.346-0.59,0.128l-2.074-2.607l-3.323,0.23c-0.279,0.019-0.458-0.289-0.304-0.522l1.839-2.778
				l-1.246-3.089c-0.104-0.259,0.133-0.525,0.402-0.451l3.21,0.89l2.553-2.14C93.17,398.78,93.496,398.923,93.508,399.202z"/>
			<path style="opacity:0.6;fill:#FFFFFF;" d="M93.508,399.202l0.145,3.328l2.824,1.767c0.237,0.148,0.201,0.503-0.061,0.601
				l-3.12,1.167l-0.808,3.232c-0.068,0.271-0.417,0.346-0.59,0.128l-2.074-2.607l-3.323,0.23c-0.279,0.019-0.458-0.289-0.304-0.522
				l1.839-2.778l-1.246-3.089c-0.104-0.259,0.133-0.525,0.402-0.451l3.21,0.89l2.553-2.14
				C93.17,398.78,93.496,398.923,93.508,399.202z"/>
		</g>
		<g>
			<path style="fill:#BA68C8;" d="M432.955,170.234l-0.35-2.185l-1.998-0.95c-0.168-0.08-0.171-0.317-0.006-0.401l1.969-1.008
				l0.286-2.194c0.024-0.184,0.248-0.26,0.38-0.13l1.567,1.562l2.175-0.406c0.182-0.034,0.324,0.156,0.24,0.321l-1.001,1.973
				l1.058,1.943c0.089,0.163-0.048,0.357-0.231,0.328l-2.186-0.342l-1.521,1.607C433.211,170.487,432.984,170.417,432.955,170.234z"
				/>
			<path style="opacity:0.6;fill:#FFFFFF;" d="M432.955,170.234l-0.35-2.185l-1.998-0.95c-0.168-0.08-0.171-0.317-0.006-0.401
				l1.969-1.008l0.286-2.194c0.024-0.184,0.248-0.26,0.38-0.13l1.567,1.562l2.175-0.406c0.182-0.034,0.324,0.156,0.24,0.321
				l-1.001,1.973l1.058,1.943c0.089,0.163-0.048,0.357-0.231,0.328l-2.186-0.342l-1.521,1.607
				C433.211,170.487,432.984,170.417,432.955,170.234z"/>
		</g>
		<g>
			<path style="fill:#BA68C8;" d="M452.611,208.327l-0.35-2.184l-1.998-0.95c-0.167-0.08-0.171-0.317-0.006-0.401l1.969-1.008
				l0.286-2.194c0.024-0.184,0.249-0.26,0.38-0.129l1.567,1.561l2.175-0.406c0.182-0.034,0.324,0.156,0.241,0.321l-1.001,1.973
				l1.058,1.943c0.089,0.163-0.048,0.357-0.231,0.328l-2.186-0.342l-1.521,1.607C452.866,208.58,452.64,208.51,452.611,208.327z"/>
			<path style="opacity:0.6;fill:#FFFFFF;" d="M452.611,208.327l-0.35-2.184l-1.998-0.95c-0.167-0.08-0.171-0.317-0.006-0.401
				l1.969-1.008l0.286-2.194c0.024-0.184,0.249-0.26,0.38-0.129l1.567,1.561l2.175-0.406c0.182-0.034,0.324,0.156,0.241,0.321
				l-1.001,1.973l1.058,1.943c0.089,0.163-0.048,0.357-0.231,0.328l-2.186-0.342l-1.521,1.607
				C452.866,208.58,452.64,208.51,452.611,208.327z"/>
		</g>
		<g>
			<path style="fill:#BA68C8;" d="M409.356,263.727l2.181,0.371l1.542-1.586c0.129-0.133,0.355-0.06,0.382,0.124l0.321,2.189
				l1.985,0.976c0.166,0.082,0.167,0.319,0,0.401l-1.983,0.982l-0.315,2.19c-0.026,0.184-0.252,0.257-0.381,0.124l-1.546-1.582
				l-2.18,0.377c-0.183,0.031-0.322-0.16-0.236-0.324l1.027-1.959l-1.032-1.957C409.034,263.888,409.173,263.696,409.356,263.727z"
				/>
			<path style="opacity:0.6;fill:#FFFFFF;" d="M409.356,263.727l2.181,0.371l1.542-1.586c0.129-0.133,0.355-0.06,0.382,0.124
				l0.321,2.189l1.985,0.976c0.166,0.082,0.167,0.319,0,0.401l-1.983,0.982l-0.315,2.19c-0.026,0.184-0.252,0.257-0.381,0.124
				l-1.546-1.582l-2.18,0.377c-0.183,0.031-0.322-0.16-0.236-0.324l1.027-1.959l-1.032-1.957
				C409.034,263.888,409.173,263.696,409.356,263.727z"/>
		</g>
		<g>
			<path style="fill:#BA68C8;" d="M414.915,85.414l0.776,1.056l1.31-0.041c0.11-0.003,0.176,0.121,0.112,0.21l-0.764,1.064
				l0.444,1.233c0.037,0.103-0.06,0.204-0.165,0.171l-1.248-0.398l-1.035,0.803c-0.087,0.067-0.213,0.006-0.214-0.104l-0.008-1.31
				l-1.084-0.737c-0.091-0.062-0.071-0.201,0.033-0.235l1.244-0.412l0.366-1.258C414.712,85.351,414.85,85.326,414.915,85.414z"/>
			<path style="opacity:0.6;fill:#FFFFFF;" d="M414.915,85.414l0.776,1.056l1.31-0.041c0.11-0.003,0.176,0.121,0.112,0.21
				l-0.764,1.064l0.444,1.233c0.037,0.103-0.06,0.204-0.165,0.171l-1.248-0.398l-1.035,0.803c-0.087,0.067-0.213,0.006-0.214-0.104
				l-0.008-1.31l-1.084-0.737c-0.091-0.062-0.071-0.201,0.033-0.235l1.244-0.412l0.366-1.258
				C414.712,85.351,414.85,85.326,414.915,85.414z"/>
		</g>
		<g>
			<path style="fill:#BA68C8;" d="M196.154,50.021l1.99,0.339l1.407-1.447c0.118-0.121,0.324-0.055,0.348,0.113l0.293,1.997
				l1.811,0.891c0.152,0.075,0.152,0.291,0,0.366l-1.809,0.896l-0.288,1.998c-0.024,0.167-0.23,0.234-0.348,0.113l-1.411-1.443
				l-1.989,0.344c-0.167,0.029-0.294-0.146-0.215-0.296l0.937-1.788l-0.941-1.785C195.861,50.168,195.988,49.992,196.154,50.021z"/>
			<path style="opacity:0.6;fill:#FFFFFF;" d="M196.154,50.021l1.99,0.339l1.407-1.447c0.118-0.121,0.324-0.055,0.348,0.113
				l0.293,1.997l1.811,0.891c0.152,0.075,0.152,0.291,0,0.366l-1.809,0.896l-0.288,1.998c-0.024,0.167-0.23,0.234-0.348,0.113
				l-1.411-1.443l-1.989,0.344c-0.167,0.029-0.294-0.146-0.215-0.296l0.937-1.788l-0.941-1.785
				C195.861,50.168,195.988,49.992,196.154,50.021z"/>
		</g>
		<g>
			<path style="fill:#BA68C8;" d="M386.253,208.079l1.292,0.22l0.913-0.939c0.077-0.079,0.21-0.036,0.226,0.073l0.19,1.296
				l1.176,0.578c0.099,0.048,0.099,0.189,0,0.238l-1.174,0.581l-0.187,1.297c-0.016,0.109-0.149,0.152-0.226,0.074l-0.916-0.937
				l-1.291,0.223c-0.108,0.019-0.191-0.095-0.14-0.192l0.608-1.16l-0.611-1.159C386.062,208.174,386.144,208.06,386.253,208.079z"/>
			<path style="opacity:0.6;fill:#FFFFFF;" d="M386.253,208.079l1.292,0.22l0.913-0.939c0.077-0.079,0.21-0.036,0.226,0.073
				l0.19,1.296l1.176,0.578c0.099,0.048,0.099,0.189,0,0.238l-1.174,0.581l-0.187,1.297c-0.016,0.109-0.149,0.152-0.226,0.074
				l-0.916-0.937l-1.291,0.223c-0.108,0.019-0.191-0.095-0.14-0.192l0.608-1.16l-0.611-1.159
				C386.062,208.174,386.144,208.06,386.253,208.079z"/>
		</g>
		<g>
			<path style="fill:#BA68C8;" d="M330.359,434.093l1.275-0.302l0.474-1.221c0.04-0.102,0.18-0.115,0.237-0.021l0.681,1.119
				l1.308,0.073c0.11,0.006,0.165,0.135,0.093,0.219l-0.854,0.994l0.335,1.267c0.028,0.106-0.078,0.198-0.179,0.156l-1.209-0.505
				l-1.101,0.71c-0.092,0.059-0.213-0.013-0.204-0.122l0.107-1.306l-1.015-0.828C330.221,434.255,330.252,434.118,330.359,434.093z"
				/>
			<path style="opacity:0.6;fill:#FFFFFF;" d="M330.359,434.093l1.275-0.302l0.474-1.221c0.04-0.102,0.18-0.115,0.237-0.021
				l0.681,1.119l1.308,0.073c0.11,0.006,0.165,0.135,0.093,0.219l-0.854,0.994l0.335,1.267c0.028,0.106-0.078,0.198-0.179,0.156
				l-1.209-0.505l-1.101,0.71c-0.092,0.059-0.213-0.013-0.204-0.122l0.107-1.306l-1.015-0.828
				C330.221,434.255,330.252,434.118,330.359,434.093z"/>
		</g>
		<g>
			<path style="fill:#BA68C8;" d="M446.563,108.592l0.776,1.056l1.31-0.041c0.11-0.003,0.176,0.12,0.112,0.21l-0.764,1.064
				l0.444,1.233c0.037,0.103-0.06,0.205-0.165,0.171l-1.248-0.398l-1.035,0.803c-0.087,0.067-0.213,0.006-0.214-0.104l-0.008-1.31
				l-1.083-0.737c-0.091-0.062-0.071-0.201,0.033-0.235l1.244-0.412l0.366-1.258C446.36,108.528,446.498,108.503,446.563,108.592z"
				/>
			<path style="opacity:0.6;fill:#FFFFFF;" d="M446.563,108.592l0.776,1.056l1.31-0.041c0.11-0.003,0.176,0.12,0.112,0.21
				l-0.764,1.064l0.444,1.233c0.037,0.103-0.06,0.205-0.165,0.171l-1.248-0.398l-1.035,0.803c-0.087,0.067-0.213,0.006-0.214-0.104
				l-0.008-1.31l-1.083-0.737c-0.091-0.062-0.071-0.201,0.033-0.235l1.244-0.412l0.366-1.258
				C446.36,108.528,446.498,108.503,446.563,108.592z"/>
		</g>
		<g>
			<path style="fill:#BA68C8;" d="M371.523,155.436l-2.134-0.584l-1.691,1.427c-0.142,0.12-0.359,0.025-0.368-0.161l-0.104-2.21
				l-1.879-1.167c-0.158-0.098-0.134-0.334,0.039-0.399l2.07-0.782l0.529-2.148c0.044-0.18,0.276-0.231,0.392-0.086l1.383,1.727
				l2.206-0.161c0.185-0.013,0.305,0.191,0.203,0.346l-1.215,1.849l0.834,2.049C371.86,155.307,371.702,155.485,371.523,155.436z"/>
			<path style="opacity:0.6;fill:#FFFFFF;" d="M371.523,155.436l-2.134-0.584l-1.691,1.427c-0.142,0.12-0.359,0.025-0.368-0.161
				l-0.104-2.21l-1.879-1.167c-0.158-0.098-0.134-0.334,0.039-0.399l2.07-0.782l0.529-2.148c0.044-0.18,0.276-0.231,0.392-0.086
				l1.383,1.727l2.206-0.161c0.185-0.013,0.305,0.191,0.203,0.346l-1.215,1.849l0.834,2.049
				C371.86,155.307,371.702,155.485,371.523,155.436z"/>
		</g>
		<g>
			<path style="fill:#BA68C8;" d="M359.362,146.465l-1.269,0.325l-0.451,1.23c-0.038,0.103-0.177,0.118-0.236,0.025l-0.702-1.107
				l-1.309-0.049c-0.11-0.004-0.167-0.132-0.097-0.217l0.835-1.009l-0.358-1.26c-0.03-0.105,0.074-0.2,0.176-0.159l1.218,0.483
				l1.088-0.73c0.091-0.061,0.213,0.009,0.206,0.118l-0.083,1.308l1.03,0.809C359.497,146.3,359.468,146.438,359.362,146.465z"/>
			<path style="opacity:0.6;fill:#FFFFFF;" d="M359.362,146.465l-1.269,0.325l-0.451,1.23c-0.038,0.103-0.177,0.118-0.236,0.025
				l-0.702-1.107l-1.309-0.049c-0.11-0.004-0.167-0.132-0.097-0.217l0.835-1.009l-0.358-1.26c-0.03-0.105,0.074-0.2,0.176-0.159
				l1.218,0.483l1.088-0.73c0.091-0.061,0.213,0.009,0.206,0.118l-0.083,1.308l1.03,0.809
				C359.497,146.3,359.468,146.438,359.362,146.465z"/>
		</g>
		<g>
			<path style="fill:#BA68C8;" d="M257.571,458.026l1.275-0.302l0.474-1.221c0.04-0.102,0.18-0.115,0.237-0.021l0.681,1.119
				l1.308,0.073c0.11,0.006,0.165,0.135,0.093,0.219l-0.854,0.994l0.335,1.267c0.028,0.106-0.078,0.198-0.179,0.156l-1.209-0.505
				l-1.101,0.71c-0.092,0.06-0.213-0.013-0.204-0.122l0.107-1.306l-1.015-0.828C257.433,458.188,257.464,458.051,257.571,458.026z"
				/>
			<path style="opacity:0.6;fill:#FFFFFF;" d="M257.571,458.026l1.275-0.302l0.474-1.221c0.04-0.102,0.18-0.115,0.237-0.021
				l0.681,1.119l1.308,0.073c0.11,0.006,0.165,0.135,0.093,0.219l-0.854,0.994l0.335,1.267c0.028,0.106-0.078,0.198-0.179,0.156
				l-1.209-0.505l-1.101,0.71c-0.092,0.06-0.213-0.013-0.204-0.122l0.107-1.306l-1.015-0.828
				C257.433,458.188,257.464,458.051,257.571,458.026z"/>
		</g>
		<g>
			<path style="fill:#BA68C8;" d="M87.299,184.013l1.725,0.294l1.22-1.255c0.102-0.105,0.281-0.048,0.302,0.098l0.254,1.731
				l1.57,0.772c0.132,0.065,0.132,0.252,0,0.317l-1.568,0.776l-0.249,1.732c-0.021,0.145-0.199,0.203-0.302,0.098l-1.223-1.251
				l-1.724,0.298c-0.145,0.025-0.255-0.127-0.187-0.256l0.812-1.55l-0.816-1.548C87.044,184.14,87.154,183.988,87.299,184.013z"/>
			<path style="opacity:0.6;fill:#FFFFFF;" d="M87.299,184.013l1.725,0.294l1.22-1.255c0.102-0.105,0.281-0.048,0.302,0.098
				l0.254,1.731l1.57,0.772c0.132,0.065,0.132,0.252,0,0.317l-1.568,0.776l-0.249,1.732c-0.021,0.145-0.199,0.203-0.302,0.098
				l-1.223-1.251l-1.724,0.298c-0.145,0.025-0.255-0.127-0.187-0.256l0.812-1.55l-0.816-1.548
				C87.044,184.14,87.154,183.988,87.299,184.013z"/>
		</g>
		<g>
			<path style="fill:#BA68C8;" d="M93.477,246.956l1.542-0.875l0.153-1.766c0.013-0.148,0.19-0.217,0.3-0.117l1.308,1.196l1.727-0.4
				c0.145-0.033,0.265,0.113,0.204,0.249l-0.733,1.614l0.914,1.519c0.077,0.127-0.026,0.287-0.174,0.271l-1.761-0.198l-1.162,1.339
				c-0.097,0.112-0.281,0.064-0.311-0.082l-0.355-1.736l-1.632-0.691C93.359,247.219,93.348,247.029,93.477,246.956z"/>
			<path style="opacity:0.6;fill:#FFFFFF;" d="M93.477,246.956l1.542-0.875l0.153-1.766c0.013-0.148,0.19-0.217,0.3-0.117
				l1.308,1.196l1.727-0.4c0.145-0.033,0.265,0.113,0.204,0.249l-0.733,1.614l0.914,1.519c0.077,0.127-0.026,0.287-0.174,0.271
				l-1.761-0.198l-1.162,1.339c-0.097,0.112-0.281,0.064-0.311-0.082l-0.355-1.736l-1.632-0.691
				C93.359,247.219,93.348,247.029,93.477,246.956z"/>
		</g>
		<g>
			<path style="fill:#BA68C8;" d="M208.703,95.198l0.094-1.307l-1.023-0.818c-0.086-0.069-0.056-0.206,0.051-0.232l1.272-0.314
				l0.462-1.226c0.039-0.103,0.178-0.116,0.237-0.023l0.692,1.112l1.309,0.061c0.11,0.005,0.166,0.134,0.095,0.218l-0.844,1.002
				l0.347,1.264c0.029,0.106-0.076,0.199-0.178,0.158l-1.214-0.493l-1.094,0.72C208.816,95.379,208.695,95.308,208.703,95.198z"/>
			<path style="opacity:0.6;fill:#FFFFFF;" d="M208.703,95.198l0.094-1.307l-1.023-0.818c-0.086-0.069-0.056-0.206,0.051-0.232
				l1.272-0.314l0.462-1.226c0.039-0.103,0.178-0.116,0.237-0.023l0.692,1.112l1.309,0.061c0.11,0.005,0.166,0.134,0.095,0.218
				l-0.844,1.002l0.347,1.264c0.029,0.106-0.076,0.199-0.178,0.158l-1.214-0.493l-1.094,0.72
				C208.816,95.379,208.695,95.308,208.703,95.198z"/>
		</g>
		<g>
			<path style="fill:#BA68C8;" d="M64.024,391.572l1.051,1.67l1.971,0.081c0.165,0.007,0.251,0.2,0.145,0.327l-1.263,1.516
				l0.532,1.9c0.045,0.159-0.113,0.301-0.266,0.239l-1.832-0.733l-1.642,1.093c-0.138,0.092-0.321-0.014-0.31-0.179l0.131-1.969
				l-1.547-1.224c-0.13-0.103-0.085-0.309,0.075-0.35l1.913-0.484l0.686-1.85C63.725,391.454,63.936,391.432,64.024,391.572z"/>
			<path style="opacity:0.6;fill:#FFFFFF;" d="M64.024,391.572l1.051,1.67l1.971,0.081c0.165,0.007,0.251,0.2,0.145,0.327
				l-1.263,1.516l0.532,1.9c0.045,0.159-0.113,0.301-0.266,0.239l-1.832-0.733l-1.642,1.093c-0.138,0.092-0.321-0.014-0.31-0.179
				l0.131-1.969l-1.547-1.224c-0.13-0.103-0.085-0.309,0.075-0.35l1.913-0.484l0.686-1.85
				C63.725,391.454,63.936,391.432,64.024,391.572z"/>
		</g>
		<g>
			<path style="fill:#BA68C8;" d="M404.229,289.217l1.097,0.899l1.362-0.394c0.114-0.033,0.217,0.079,0.173,0.19l-0.516,1.321
				l0.796,1.174c0.067,0.098-0.008,0.23-0.127,0.224l-1.416-0.083l-0.871,1.119c-0.073,0.094-0.222,0.063-0.252-0.052l-0.359-1.372
				l-1.334-0.482c-0.112-0.04-0.129-0.191-0.029-0.256l1.194-0.765l0.047-1.417C403.999,289.204,404.137,289.142,404.229,289.217z"
				/>
			<path style="opacity:0.6;fill:#FFFFFF;" d="M404.229,289.217l1.097,0.899l1.362-0.394c0.114-0.033,0.217,0.079,0.173,0.19
				l-0.516,1.321l0.796,1.174c0.067,0.098-0.008,0.23-0.127,0.224l-1.416-0.083l-0.871,1.119c-0.073,0.094-0.222,0.063-0.252-0.052
				l-0.359-1.372l-1.334-0.482c-0.112-0.04-0.129-0.191-0.029-0.256l1.194-0.765l0.047-1.417
				C403.999,289.204,404.137,289.142,404.229,289.217z"/>
		</g>
		<path style="fill:#E0E0E0;" d="M459.784,180.773c0.359-0.405,0.978-0.442,1.383-0.083c0.405,0.359,0.442,0.978,0.083,1.383
			c-0.359,0.405-0.978,0.442-1.383,0.083C459.463,181.797,459.425,181.178,459.784,180.773z"/>
		<path style="fill:#E0E0E0;" d="M441.153,176.26c0.359-0.405,0.978-0.442,1.383-0.083c0.405,0.359,0.442,0.978,0.083,1.383
			c-0.359,0.405-0.978,0.442-1.383,0.083C440.832,177.285,440.794,176.665,441.153,176.26z"/>
		<path style="fill:#E0E0E0;" d="M415.891,278.768c0,0.78-0.632,1.412-1.412,1.412c-0.78,0-1.412-0.632-1.412-1.412
			c0-0.78,0.632-1.412,1.412-1.412C415.259,277.356,415.891,277.988,415.891,278.768z"/>
		<path style="fill:#E0E0E0;" d="M52.675,303.544c-0.566,0.611-1.521,0.647-2.132,0.081c-0.611-0.566-0.647-1.521-0.081-2.132
			c0.566-0.611,1.521-0.647,2.132-0.081C53.206,301.978,53.242,302.933,52.675,303.544z"/>
		<path style="fill:#E0E0E0;" d="M75.703,412.27c-0.607,0.544-1.54,0.492-2.083-0.115c-0.544-0.607-0.492-1.54,0.115-2.083
			c0.607-0.544,1.54-0.492,2.083,0.115C76.362,410.794,76.31,411.727,75.703,412.27z"/>
		<path style="fill:#E0E0E0;" d="M44.682,378.893c-0.306,0.274-0.775,0.248-1.049-0.058c-0.274-0.306-0.248-0.775,0.058-1.049
			c0.306-0.274,0.775-0.248,1.049,0.058C45.013,378.15,44.987,378.619,44.682,378.893z"/>
		<path style="fill:#E0E0E0;" d="M54.302,408.103c-0.306,0.274-0.775,0.248-1.049-0.058c-0.274-0.306-0.248-0.775,0.058-1.049
			c0.306-0.274,0.775-0.248,1.049,0.058C54.633,407.36,54.607,407.83,54.302,408.103z"/>
		<path style="fill:#E0E0E0;" d="M79.736,384.327c-0.305,0.274-0.775,0.248-1.049-0.058c-0.274-0.306-0.248-0.775,0.058-1.049
			c0.306-0.274,0.775-0.248,1.049,0.058C80.068,383.584,80.042,384.054,79.736,384.327z"/>
		<path style="fill:#E0E0E0;" d="M80.433,328.593c-0.198,0.213-0.531,0.226-0.745,0.028c-0.213-0.198-0.226-0.531-0.028-0.745
			c0.198-0.213,0.531-0.226,0.745-0.028C80.618,328.047,80.631,328.38,80.433,328.593z"/>
		<path style="fill:#E0E0E0;" d="M420.037,129.207c0.429-0.444,1.136-0.456,1.58-0.027c0.444,0.429,0.456,1.136,0.027,1.58
			c-0.429,0.444-1.136,0.456-1.58,0.027C419.62,130.358,419.608,129.651,420.037,129.207z"/>
		<path style="fill:#E0E0E0;" d="M436.253,191.663c0.181-0.204,0.492-0.223,0.696-0.042c0.204,0.181,0.223,0.493,0.042,0.696
			c-0.181,0.204-0.492,0.223-0.696,0.042C436.091,192.179,436.073,191.867,436.253,191.663z"/>
		<path style="fill:#E0E0E0;" d="M449.56,191.564c0.181-0.204,0.492-0.223,0.696-0.042c0.204,0.181,0.222,0.493,0.042,0.696
			c-0.181,0.204-0.492,0.223-0.696,0.042C449.398,192.08,449.379,191.768,449.56,191.564z"/>
		<path style="fill:#E0E0E0;" d="M233.967,67.36c0.761-0.074,1.438,0.483,1.512,1.245c0.074,0.761-0.483,1.438-1.244,1.512
			c-0.761,0.074-1.438-0.483-1.512-1.244C232.649,68.111,233.206,67.434,233.967,67.36z"/>
		<path style="fill:#E0E0E0;" d="M425.724,302.732c0,0.273-0.221,0.493-0.493,0.493c-0.272,0-0.493-0.221-0.493-0.493
			c0-0.272,0.221-0.493,0.493-0.493C425.503,302.238,425.724,302.459,425.724,302.732z"/>
		<g>
			<path style="fill:#BA68C8;" d="M408.664,409.257l3.755,1.656l3.493-2.155c0.293-0.181,0.665,0.053,0.631,0.395l-0.415,4.083
				l3.129,2.657c0.262,0.223,0.155,0.649-0.181,0.722l-4.012,0.867l-1.56,3.797c-0.131,0.318-0.569,0.348-0.742,0.051l-2.065-3.547
				l-4.093-0.31c-0.343-0.026-0.507-0.434-0.278-0.69l2.736-3.06l-0.97-3.988C408.012,409.4,408.349,409.118,408.664,409.257z"/>
			<path style="opacity:0.6;fill:#FFFFFF;" d="M408.664,409.257l3.755,1.656l3.493-2.155c0.293-0.181,0.665,0.053,0.631,0.395
				l-0.415,4.083l3.129,2.657c0.262,0.223,0.155,0.649-0.181,0.722l-4.012,0.867l-1.56,3.797c-0.131,0.318-0.569,0.348-0.742,0.051
				l-2.065-3.547l-4.093-0.31c-0.343-0.026-0.507-0.434-0.278-0.69l2.736-3.06l-0.97-3.988
				C408.012,409.4,408.349,409.118,408.664,409.257z"/>
		</g>
		<g>
			<path style="fill:#BA68C8;" d="M433.252,343.203l1.566-1.563l-0.4-2.176c-0.034-0.182,0.157-0.324,0.322-0.24l1.97,1.006
				l1.946-1.053c0.163-0.088,0.356,0.049,0.327,0.232l-0.348,2.185l1.603,1.525c0.134,0.128,0.064,0.354-0.12,0.383l-2.185,0.344
				l-0.955,1.995c-0.08,0.167-0.317,0.17-0.401,0.005l-1.003-1.972l-2.193-0.292C433.196,343.559,433.121,343.334,433.252,343.203z"
				/>
			<path style="opacity:0.6;fill:#FFFFFF;" d="M433.252,343.203l1.566-1.563l-0.4-2.176c-0.034-0.182,0.157-0.324,0.322-0.24
				l1.97,1.006l1.946-1.053c0.163-0.088,0.356,0.049,0.327,0.232l-0.348,2.185l1.603,1.525c0.134,0.128,0.064,0.354-0.12,0.383
				l-2.185,0.344l-0.955,1.995c-0.08,0.167-0.317,0.17-0.401,0.005l-1.003-1.972l-2.193-0.292
				C433.196,343.559,433.121,343.334,433.252,343.203z"/>
		</g>
		<g>
			<path style="fill:#BA68C8;" d="M401.882,396.004l2.197-0.262l1.029-1.958c0.086-0.164,0.323-0.158,0.401,0.01l0.928,2.008
				l2.18,0.374c0.183,0.031,0.25,0.259,0.114,0.385l-1.623,1.503l0.318,2.189c0.027,0.183-0.169,0.318-0.331,0.227l-1.931-1.079
				l-1.984,0.979c-0.166,0.082-0.354-0.062-0.318-0.244l0.43-2.17l-1.544-1.584C401.619,396.249,401.698,396.026,401.882,396.004z"
				/>
			<path style="opacity:0.6;fill:#FFFFFF;" d="M401.882,396.004l2.197-0.262l1.029-1.958c0.086-0.164,0.323-0.158,0.401,0.01
				l0.928,2.008l2.18,0.374c0.183,0.031,0.25,0.259,0.114,0.385l-1.623,1.503l0.318,2.189c0.027,0.183-0.169,0.318-0.331,0.227
				l-1.931-1.079l-1.984,0.979c-0.166,0.082-0.354-0.062-0.318-0.244l0.43-2.17l-1.544-1.584
				C401.619,396.249,401.698,396.026,401.882,396.004z"/>
		</g>
		<path style="fill:#E0E0E0;" d="M429.126,404.276c0.39,0.375,0.403,0.995,0.028,1.385c-0.375,0.39-0.995,0.403-1.385,0.028
			s-0.403-0.995-0.028-1.385C428.115,403.914,428.736,403.901,429.126,404.276z"/>
		<path style="fill:#E0E0E0;" d="M433.168,353.378c0.538,0.054,0.931,0.534,0.877,1.072s-0.534,0.931-1.072,0.878
			c-0.538-0.054-0.931-0.534-0.878-1.072C432.15,353.717,432.63,353.324,433.168,353.378z"/>
		<path style="fill:#E0E0E0;" d="M417.813,358.426c0.271,0.027,0.469,0.269,0.442,0.54c-0.027,0.271-0.269,0.469-0.54,0.442
			c-0.271-0.027-0.469-0.269-0.442-0.54C417.3,358.597,417.542,358.399,417.813,358.426z"/>
		<path style="fill:#E0E0E0;" d="M418.753,393.627c0.197,0.189,0.203,0.501,0.014,0.698c-0.189,0.197-0.501,0.203-0.697,0.014
			c-0.197-0.189-0.203-0.501-0.014-0.697C418.245,393.445,418.557,393.439,418.753,393.627z"/>
		<path style="fill:#E0E0E0;" d="M421.182,428.824c0.197,0.189,0.203,0.501,0.014,0.698c-0.189,0.196-0.501,0.203-0.697,0.014
			c-0.197-0.189-0.203-0.501-0.014-0.697C420.673,428.642,420.985,428.636,421.182,428.824z"/>
		<path style="fill:#E0E0E0;" d="M441.387,209.239c0.181-0.204,0.492-0.223,0.696-0.042c0.204,0.181,0.223,0.493,0.042,0.696
			c-0.181,0.204-0.492,0.223-0.696,0.042C441.225,209.754,441.206,209.443,441.387,209.239z"/>
		<path style="fill:#E0E0E0;" d="M208.17,80.838c0.271-0.026,0.512,0.172,0.538,0.443c0.026,0.271-0.172,0.512-0.443,0.539
			c-0.271,0.026-0.512-0.172-0.539-0.443C207.7,81.105,207.898,80.864,208.17,80.838z"/>
		<path style="fill:#E0E0E0;" d="M57.066,306.276c-0.198,0.213-0.531,0.226-0.745,0.028c-0.214-0.198-0.226-0.531-0.028-0.745
			c0.198-0.213,0.531-0.226,0.745-0.028C57.251,305.729,57.264,306.062,57.066,306.276z"/>
		<g>
			<circle style="fill:#BA68C8;" cx="68.039" cy="76.579" r="1.752"/>
			<circle style="opacity:0.6;fill:#FFFFFF;" cx="68.039" cy="76.579" r="1.752"/>
		</g>
		<g>
			<path style="fill:#BA68C8;" d="M221.545,466.8c0.245,0.578-0.025,1.246-0.603,1.492c-0.578,0.245-1.246-0.025-1.492-0.603
				c-0.245-0.578,0.025-1.246,0.603-1.492S221.299,466.221,221.545,466.8z"/>
			<path style="opacity:0.6;fill:#FFFFFF;" d="M221.545,466.8c0.245,0.578-0.025,1.246-0.603,1.492
				c-0.578,0.245-1.246-0.025-1.492-0.603c-0.245-0.578,0.025-1.246,0.603-1.492S221.299,466.221,221.545,466.8z"/>
		</g>
		<g>
			<path style="fill:#BA68C8;" d="M414.214,72.057c-0.289,0.3-0.767,0.308-1.067,0.018c-0.3-0.289-0.308-0.767-0.018-1.067
				c0.29-0.3,0.767-0.308,1.067-0.018C414.495,71.28,414.503,71.757,414.214,72.057z"/>
			<path style="opacity:0.6;fill:#FFFFFF;" d="M414.214,72.057c-0.289,0.3-0.767,0.308-1.067,0.018
				c-0.3-0.289-0.308-0.767-0.018-1.067c0.29-0.3,0.767-0.308,1.067-0.018C414.495,71.28,414.503,71.757,414.214,72.057z"/>
		</g>
		<g>
			<path style="fill:#BA68C8;" d="M109.641,264.447c0.356,0.437,0.291,1.079-0.145,1.436c-0.437,0.356-1.079,0.291-1.436-0.145
				c-0.356-0.437-0.291-1.079,0.145-1.436C108.641,263.945,109.284,264.01,109.641,264.447z"/>
			<path style="opacity:0.6;fill:#FFFFFF;" d="M109.641,264.447c0.356,0.437,0.291,1.079-0.145,1.436
				c-0.437,0.356-1.079,0.291-1.436-0.145c-0.356-0.437-0.291-1.079,0.145-1.436C108.641,263.945,109.284,264.01,109.641,264.447z"
				/>
		</g>
		<g>
			<path style="fill:#BA68C8;" d="M422.137,91.902c-0.29,0.3-0.767,0.308-1.067,0.018c-0.3-0.29-0.308-0.767-0.018-1.067
				c0.289-0.299,0.767-0.308,1.067-0.018C422.419,91.124,422.427,91.602,422.137,91.902z"/>
			<path style="opacity:0.6;fill:#FFFFFF;" d="M422.137,91.902c-0.29,0.3-0.767,0.308-1.067,0.018
				c-0.3-0.29-0.308-0.767-0.018-1.067c0.289-0.299,0.767-0.308,1.067-0.018C422.419,91.124,422.427,91.602,422.137,91.902z"/>
		</g>
		<g>
			<path style="fill:#BA68C8;" d="M75.157,166.759c0,0.556-0.451,1.007-1.007,1.007c-0.556,0-1.007-0.451-1.007-1.007
				c0-0.556,0.451-1.007,1.007-1.007C74.706,165.751,75.157,166.202,75.157,166.759z"/>
			<path style="opacity:0.6;fill:#FFFFFF;" d="M75.157,166.759c0,0.556-0.451,1.007-1.007,1.007c-0.556,0-1.007-0.451-1.007-1.007
				c0-0.556,0.451-1.007,1.007-1.007C74.706,165.751,75.157,166.202,75.157,166.759z"/>
		</g>
		<g>
			<path style="fill:#BA68C8;" d="M84.06,206.6c0,0.556-0.451,1.007-1.007,1.007c-0.556,0-1.007-0.451-1.007-1.007
				c0-0.556,0.451-1.007,1.007-1.007C83.609,205.593,84.06,206.044,84.06,206.6z"/>
			<path style="opacity:0.6;fill:#FFFFFF;" d="M84.06,206.6c0,0.556-0.451,1.007-1.007,1.007c-0.556,0-1.007-0.451-1.007-1.007
				c0-0.556,0.451-1.007,1.007-1.007C83.609,205.593,84.06,206.044,84.06,206.6z"/>
		</g>
	</g>
</g>
</svg>
