<?xml version="1.0" encoding="utf-8"?>
<!-- Generator: Adobe Illustrator 26.1.0, SVG Export Plug-In . SVG Version: 6.00 Build 0)  -->
<svg version="1.1" xmlns="http://www.w3.org/2000/svg" xmlns:xlink="http://www.w3.org/1999/xlink" x="0px" y="0px"
	 viewBox="0 0 500 394.23" style="enable-background:new 0 0 500 394.23;" xml:space="preserve">
<style type="text/css">
	.st0{fill:#FFFFFF;}
	.st1{fill:#EDF6F7;}
	.st2{fill:#F07D18;}
	.st3{fill:#FFB9A0;}
	.st4{fill:#FFE5CF;}
	.st5{opacity:0.5;fill:#FFB9A0;}
	.st6{fill:#070540;}
	.st7{fill:#E6E8F4;}
	.st8{fill:#6B78B7;}
	.st9{opacity:0.33;}
	.st10{fill:#ACB3D8;}
	.st11{fill:#F3F4FA;}
	.st12{fill:#D14122;}
	.st13{fill:#FF946E;}
	.st14{clip-path:url(#SVGID_00000094588584790370069260000004626327907728129452_);}
	.st15{fill:#FFD2B3;}
	.st16{fill:#FFB98B;}
	.st17{fill:#5BCFDE;}
	.st18{opacity:0.4;}
	.st19{opacity:0.33;fill:#6B78B7;}
	.st20{opacity:0.44;fill:#6B78B7;}
	.st21{fill:#450603;}
	.st22{opacity:0.4;fill:#6B78B7;}
	.st23{fill:#691813;}
	.st24{opacity:0.3;fill:#6B78B7;}
	.st25{opacity:0.5;}
	.st26{opacity:0.3;fill:#450603;}
	.st27{fill:#FFB718;}
	.st28{fill:#330300;}
	.st29{opacity:0.5;fill:#450603;}
	.st30{fill:#FEDA00;}
	.st31{fill:#00B09D;}
	.st32{opacity:0.4;fill:#FFB98B;}
	.st33{opacity:0.33;fill:#FFB98B;}
	.st34{opacity:0.5;fill:#00B09D;}
	.st35{fill:#F4F3F3;}
</style>
<g id="BACKGROUND">
	<rect y="-105.77" class="st0" width="500" height="500"/>
</g>
<g id="OBJECTS">
	<g>
		<path class="st1" d="M261.91,334.13c-5.61,9.53-16.24,14.96-27.29,14.64c-5.7-0.17-14.99-0.38-23.2-0.33
			c-19.62,0.12-31.32-30.21-5.93-35.11c22.29-4.3,18.52-10.67,27.9-15.01c12.89-5.97,28.32,1.56,31.68,15.36
			c1.64,6.73,0.63,13.35-2.29,18.89c-0.02,0.04-0.05,0.09-0.07,0.13C262.45,333.18,262.18,333.66,261.91,334.13z"/>
		<path class="st1" d="M98.1,271.89c-36.03-38.76-34.84-102.96-0.99-143.63c20.75-24.93,50.08-37.83,79.71-38.44
			c13.3-0.27,26.14-6.03,33.77-16.93c10.48-14.97,22.39-32.44,46.6-35.77c27.25-3.75,50.9,14.61,61.69,35.36
			c10.21,19.62,22.7,24.08,37.07,32.36c9.38,5.41,18.13,12.37,25.88,20.92c36.08,39.8,36.98,98.99,2.28,140
			c-28.12,33.24-75.85,54.44-110.4,33.78c-30.11-18.01-42.47-12.6-67.23-0.36C170.52,316.94,130.49,306.73,98.1,271.89z"/>
		<circle class="st1" cx="182.5" cy="58.64" r="23.85"/>
	</g>
	<g>
		<g>
			<g>
				<path class="st2" d="M159.7,211.96c0,0-17.73-44.46-21.85-54.88c-5.13-12.98-15.73-29.56-9.16-33.3
					c7.42-4.22,9.94,14.53,15.02,32.9c2.12,7.65,18.44,53.7,18.57,54.09C162.6,211.72,160.2,213.22,159.7,211.96z"/>
				<g>
					<path class="st3" d="M155.13,205.22c-0.09,0.19-9.83,6.17-11.86,5.76c-2.04-0.41,1.38-7.41,1.59-7.53
						c0.2-0.12,4.44-2.99,4.44-2.99S156.4,202.55,155.13,205.22z"/>
					<g>
						<path class="st4" d="M152.02,205.16c-0.15-0.14-3.7-4.23-3.18-8.38c0.53-4.15,1.87-6.32,2.42-8.22
							c0.25-0.86,1.77-0.89,1.89-0.12c0.09,0.58,0.12,3.56,0.12,3.56l3.75-1.22l2.16,11.32
							C159.18,202.11,154.38,207.28,152.02,205.16z"/>
						<path class="st5" d="M152.02,205.16c-0.15-0.14-3.7-4.23-3.18-8.38c0.53-4.15,1.87-6.32,2.42-8.22
							c0.25-0.86,1.77-0.89,1.89-0.12c0.09,0.58,0.12,3.56,0.12,3.56l3.75-1.22l2.16,11.32
							C159.18,202.11,154.38,207.28,152.02,205.16z"/>
					</g>
					<g>
						<path class="st4" d="M156.12,197.9c0,0-1.55,0.73-1.85,1.41c-0.3,0.68,0.38,1.36,1.36,1.28c0.98-0.08,3.45-0.65,4.4-0.98
							s0.52-2.14-0.41-2.23C158.69,197.3,156.74,197.74,156.12,197.9z"/>
						<path class="st4" d="M153.93,196.74c0,0-1.47,0.93-1.61,1.66c-0.14,0.73,0.67,1.24,1.6,0.95c0.94-0.29,4.57-1.44,5.43-1.96
							s0.01-2.33-0.92-2.33C157,195.04,154.77,196.21,153.93,196.74z"/>
						<path class="st4" d="M153.44,194.25c0,0-1.5,0.94-1.64,1.68c-0.15,0.73,0.68,1.25,1.63,0.95c0.95-0.3,4.66-1.46,5.53-1.99
							c0.87-0.53,0.07-2.48-0.88-2.49C156.62,192.4,154.3,193.72,153.44,194.25z"/>
						<path class="st4" d="M152.91,191.9c0,0-1.17,0.87-1.25,1.61c-0.08,0.74,0.78,1.18,1.69,0.8c0.91-0.38,3.77-1.42,4.58-2.02
							c0.81-0.6-0.15-2.45-1.08-2.38C155.42,190.02,153.71,191.3,152.91,191.9z"/>
					</g>
				</g>
			</g>
			<g>
				<g>
					<path class="st6" d="M31.73,338.86c0,0-2.15,1.85-3.46,3.86c-1.31,2,0.08,6.46,1.27,8.85c1.19,2.39,7.79,7.09,9.96,7.09
						c2.17,0.01,1.33-7.05,1.99-9.71c0.66-2.66,1.5-4.79,1.5-4.79S39.36,338.28,31.73,338.86z"/>
					<path class="st7" d="M39.51,358.66c-2.17-0.01-8.78-4.7-9.96-7.09c-1.07-2.16-2.3-6-1.57-8.2c-0.18,0.24-0.36,0.48-0.52,0.73
						c-1.31,2,0.08,6.46,1.27,8.85c1.19,2.39,7.79,7.09,9.96,7.09c0.63,0,1-0.59,1.24-1.49C39.8,358.62,39.66,358.66,39.51,358.66z"
						/>
				</g>
				<g>
					<path class="st6" d="M133.24,348.92c0,0,0.12,1.63,0.49,2.28c0.38,0.65,8.49,2.81,11.48,3.1c3.85,0.37,9.67-0.37,9.99-1.29
						c0.33-0.92-0.96-3.59-2.26-4.84c-1.3-1.25-6.66-4.53-8.56-5.46C142.49,341.78,133.47,346.04,133.24,348.92z"/>
					<path class="st7" d="M145.21,354.3c-2.99-0.29-11.1-2.45-11.48-3.1c0,0-0.12,0.43,0.25,1.09c0.38,0.65,8.23,2.88,11.22,3.17
						c3.85,0.37,9.67-0.37,9.99-1.29c0.09-0.25,0.06-0.63-0.06-1.06C154.5,353.98,148.95,354.66,145.21,354.3z"/>
				</g>
				<g>
					<path class="st8" d="M77.11,236.39c0,0-7.49,10.75-8.96,17.75c-1.47,7-4.45,35.1-4.94,37.66c-0.12,0.64-6.7,4.48-9.66,8.85
						c-8.97,13.25-22.08,37.15-22.2,38.01c-0.16,1.14,9.93,2.98,11.35,6.45c2.54-2.1,31.04-40.76,34.41-44.55
						c3.6-4.05,16.29-22.4,16.29-22.4s24.98,24.36,26.22,26.15c0.4,0.58,0.29,6.27,1.9,12.43c3.31,12.7,11.07,31.15,11.73,32.03
						c0,0,7.06-6.14,11.13-6.24c0,0-9.45-35.61-11.89-45.87c-2.44-10.26-21.99-45.62-24.1-48.3
						C106.26,245.67,79.14,236.55,77.11,236.39z"/>
					<g class="st9">
						<path class="st8" d="M108.37,248.35c-2.12-2.68-29.24-11.8-31.27-11.96c0,0-7.49,10.75-8.96,17.75
							c-0.27,1.3-0.6,3.34-0.95,5.8c0-0.01,7.3-11.96,44.26-6.52C109.92,250.73,108.8,248.88,108.37,248.35z"/>
						<path class="st8" d="M101.53,266.71c-2.61,3.28-8.14,11.44-8.14,11.44s6.37,6.22,12.84,12.6c0,0,0,0,0,0
							C99.43,282.03,104.14,263.42,101.53,266.71z"/>
					</g>
				</g>
			</g>
			<path class="st10" d="M145.1,219.29c0,0,2.28,0.9,4.27-2.48c1.99-3.38,3.38-10.54,3.38-10.54l-9.28,2.56
				C143.47,208.83,140.94,216.28,145.1,219.29z"/>
			<g>
				<g>
					<path class="st7" d="M109.56,184.72c-4.32,0.05-15.38,2.89-19.15,8.4c-5.54,8.09-3.45,21.28-7.44,27.3
						c-3.99,6.03-8.63,10.67-7.9,15.8c0.73,5.13,28,14.38,37.04,11.88c7.44-2.05,14.49-27.17,17.43-34.19c0,0,10.75,4.97,15.55,5.37
						c0,0-2.97-4.85,0.04-11.69s4.15-7.14,4.15-7.14s-3.78,0.18-12.25-5.27C128.57,189.73,120.85,184.61,109.56,184.72z"/>
				</g>
				<g>
					<path class="st7" d="M137.04,195.19c-8.47-5.46-16.19-10.58-27.48-10.46c-2.03,0.02-7.02-0.29-2.47,5.48
						c6.93,8.78,25.69,11.91,22.45,23.71c0,0,10.75,4.97,15.55,5.37c0,0-2.97-4.85,0.04-11.69c3.01-6.84,4.15-7.14,4.15-7.14
						S145.5,200.64,137.04,195.19z"/>
				</g>
			</g>
			<g>
				<path class="st10" d="M105.69,225.49c0,0,1.3,0.96,10.7-8.24c9.4-9.2-4.8-7.53-8.47-4.64
					C104.26,215.5,101.01,221.67,105.69,225.49z"/>
				<g>
					<path class="st4" d="M121.29,208.7c0,0,25.74-0.76,27.5-1.03c1.76-0.27,5.58-6.91,6.52-7.82c0.94-0.92,6.19-0.18,6.84,0
						c0.65,0.18,0.34,1.81,0.15,2.14c0,0,1.48,0.54,1.79,1.15c0.23,0.45-0.24,1.9-0.24,1.9s1,0.38,1.17,0.91
						c0.08,0.27-0.27,1.32-0.27,1.32s1.17,0.49,1.04,1.47c-0.08,0.62-1.6,2.26-2.3,2.09c-0.7-0.17-2.58-0.36-3.39,0.22
						c-0.81,0.58-1,1.33-0.84,1.87c0.14,0.45-1.82,2.55-4.26,2.47c-2.44-0.08-5.48-1.18-11.11,1.34c-5.63,2.52-17.56,4.6-22.28,4.64
						s-11.44-4.64-11.52-4.64C110,216.72,116.49,208.85,121.29,208.7z"/>
					<path class="st5" d="M164.75,207.27c0,0,0.35-1.05,0.27-1.32c-0.16-0.53-1.17-0.91-1.17-0.91s0.47-1.45,0.24-1.9
						c-0.31-0.61-1.79-1.15-1.79-1.15c0.19-0.33,0.5-1.95-0.15-2.14c-0.43-0.12-2.85-0.48-4.73-0.45c0.44,0.04,2.24,0.26,2.61,0.71
						c0.39,0.47-0.07,1.75,0.38,2.46c0.45,0.71,2.21,3.75,2.51,4.6c0.31,0.85,0.16,3.42-1.12,3.48c0,0,0,0,0,0
						c0.67-0.01,1.33,0.08,1.69,0.17c0.7,0.17,2.22-1.47,2.3-2.1C165.91,207.75,164.75,207.27,164.75,207.27z"/>
				</g>
				<path class="st11" d="M121.29,208.7c0.02-0.03-4.61-1.38-10.55-7.25c-5.94-5.86-14.49-8.43-18.4-5.76
					c-3.91,2.67-6.76,10.98-0.2,16.84c9.12,8.14,11.24,12.96,13.56,12.96c0,0-2.08-0.46,4.19-6.24
					C116.15,213.47,119.06,212.04,121.29,208.7z"/>
			</g>
			<g>
				<path class="st10" d="M112.85,193.41c0,0,1.71,0.8,2.53,0.34s-0.59-5.53-1.92-6.5C112.13,186.28,112.28,192.53,112.85,193.41z"
					/>
				<g>
					<path class="st6" d="M118.24,180.83c0,0-1.03,2.49-3.79,2.68c-2.76,0.19,0.11-7.2,0.11-7.2h4.32
						C118.89,176.31,118.62,179.56,118.24,180.83z"/>
					<path class="st6" d="M118.24,180.83c0,0-1.03,2.49-3.79,2.68c-2.76,0.19,0.11-7.2,0.11-7.2h4.32
						C118.89,176.31,118.62,179.56,118.24,180.83z"/>
					<path class="st12" d="M102.65,176.14c0,0-0.4-4.6,0.85-6.53c1.16-1.78,11.15-2.58,12.9,0.36c2.33,3.91-0.17,11.33-0.17,11.33
						S103.95,188.34,102.65,176.14z"/>
					<path class="st3" d="M106.23,187.52c0,0-0.16,1.66-0.12,1.96c0.04,0.3,5.36,3.36,6.73,3.93c0,0,3.53-11.82,3.38-11.78
						C116.08,181.66,106.23,187.52,106.23,187.52z"/>
					<path class="st4" d="M102.65,176.14c0,0.17,0.55,10.87,0.69,12.06c0.14,1.2,3.36,1.61,4.84,0.96c1.48-0.66,5.01-3.16,5.41-3.76
						c0.4-0.6,0.69-2.17,0.69-2.17s-0.06,0.79,1.08,0.55c1.14-0.24,2.26-1.77,2.31-2.69c0.14-2.61-2.59-3.03-3.36,0.52
						c-0.08,0.36-1.05,0.55-1.03,0.28c0.02-0.28,0.28-3.16,0.31-3.68c0.03-0.51-1.08-1.08-1.11-1.57c-0.03-0.48,0.83-3.82,0.6-4.36
						c-0.23-0.54-3.83,1.08-6.94,0.4C103.02,172.01,102.56,173.32,102.65,176.14z"/>
					<path class="st3" d="M102.88,180.64c2.9-0.73,5.75,2.77,10.47,0.45c0.08-0.98,0.22-2.51,0.24-2.87
						c0.03-0.51-1.08-1.08-1.11-1.57c-0.03-0.48,0.83-3.82,0.6-4.36c-0.23-0.54-3.83,1.08-6.94,0.4c-3.12-0.68-3.57,0.63-3.49,3.45
						C102.65,176.22,102.75,178.25,102.88,180.64z"/>
					<path class="st6" d="M118.24,180.83c0,0,0.49-3.07-1.54-2.82c-4.52,0.56-10.93-3.52-14.61-2.81c0,0-0.69-5.13,3.04-7.41
						c4.03-2.47,12.07-1,13.81,3.99C120.64,176.63,118.24,180.83,118.24,180.83z"/>
					<g>
						<path class="st6" d="M114.57,178.79c0,0-2.28,1.17-4.79,0.86c-2.51-0.31-5.31-2.91-10.64-2.74l-0.22-0.46
							c0,0,2.57-0.27,3.18-0.44c0.92-0.26,2.98-0.38,5.17,0.29c2.1,0.64,7.31,1.68,7.31,1.68V178.79z"/>
						<path class="st8" d="M114.57,177.98c0,0-2.28,1.36-4.79,1.04c-2.51-0.31-5.53-2.74-10.86-2.56c0,0,2.26-1,3.18-1.25
							c0.92-0.26,2.98-0.38,5.17,0.29C109.6,176.2,113.38,177.73,114.57,177.98z"/>
					</g>
				</g>
			</g>
		</g>
		<path class="st13" d="M163.16,210.84c-0.41-0.93-1.71-1.25-2.9-0.72c-1.19,0.53-1.83,1.7-1.42,2.63s1.71,1.25,2.9,0.72
			C162.93,212.94,163.57,211.76,163.16,210.84z"/>
	</g>
	<g>
		<g>
			<polygon class="st10" points="419.98,232 416.88,233.15 422.52,248.36 425.63,247.21 428.73,246.05 423.09,230.85 			"/>
			<polygon class="st6" points="425.63,247.21 421.11,248.88 422.16,251.71 426.67,250.03 431.19,248.36 430.14,245.53 			"/>
			<polygon class="st6" points="418.94,229.17 415.11,230.59 416.16,233.42 419.98,232 423.81,230.58 422.76,227.75 			"/>
			<g>
				<g>
					<path class="st8" d="M395.57,205.84c-0.01-0.01-0.01-0.01-0.02-0.02c0.03,0.08,0.06,0.16,0.1,0.24
						C395.62,205.99,395.59,205.92,395.57,205.84z"/>
				</g>
				<path class="st8" d="M421.9,197.53c-0.09-0.26-0.17-0.52-0.27-0.78c-3.33-8.97-11.82-14.09-18.97-11.44
					c-7.15,2.65-10.24,12.07-6.92,21.04c0.1,0.26,0.2,0.51,0.3,0.76l-0.02,0.01c4.86,13.1,16.49,13.66,20.04,23.11l1.61-0.6
					l-0.68-1.49c-1.93-3.88-5.12-6.25-8.48-8.73c-0.82-0.61-1.65-1.22-2.46-1.86c2.83,1.12,5.84,1.28,8.65,0.24
					c2.81-1.04,4.99-3.13,6.4-5.82c-0.2,1.02-0.43,2.02-0.65,3.02c-0.92,4.07-1.8,7.95-0.73,12.15l0.47,1.57l1.6-0.59
					c-3.47-9.48,4.98-17.49,0.12-30.59L421.9,197.53z M414.12,216.21c-6.26,2.32-13.8-2.36-16.79-10.44
					c-3-8.08-0.34-16.54,5.92-18.87c6.26-2.32,13.8,2.36,16.79,10.44C423.04,205.42,420.39,213.88,414.12,216.21z"/>
				<path class="st8" d="M421.43,196.25c0-0.01,0-0.02,0-0.02c0.03,0.08,0.05,0.16,0.08,0.24
					C421.49,196.39,421.46,196.32,421.43,196.25z"/>
				<g>
					<defs>
						<path id="SVGID_1_" d="M403.25,186.9c6.26-2.32,13.8,2.36,16.79,10.44c3,8.08,0.34,16.54-5.92,18.87
							c-6.26,2.32-13.8-2.36-16.79-10.44C394.33,197.69,396.99,189.22,403.25,186.9"/>
					</defs>
					<clipPath id="SVGID_00000122001581999613814660000018226976032505345981_">
						<use xlink:href="#SVGID_1_"  style="overflow:visible;"/>
					</clipPath>
					<g style="clip-path:url(#SVGID_00000122001581999613814660000018226976032505345981_);">
						<g>
							
								<rect x="390.74" y="189.55" transform="matrix(0.9376 -0.3478 0.3478 0.9376 -40.7921 152.5064)" class="st6" width="27.23" height="0.62"/>
						</g>
						<g>
							
								<rect x="391.46" y="191.51" transform="matrix(0.9376 -0.3478 0.3478 0.9376 -41.4276 152.8812)" class="st6" width="27.23" height="0.62"/>
						</g>
						<g>
							
								<rect x="392.19" y="193.47" transform="matrix(0.9376 -0.3478 0.3478 0.9376 -42.0632 153.2575)" class="st6" width="27.23" height="0.62"/>
						</g>
						<g>
							
								<rect x="392.92" y="195.42" transform="matrix(0.9376 -0.3478 0.3478 0.9376 -42.6985 153.6308)" class="st6" width="27.23" height="0.62"/>
						</g>
						<g>
							
								<rect x="393.64" y="197.38" transform="matrix(0.9376 -0.3478 0.3478 0.9376 -43.3339 154.0056)" class="st6" width="27.23" height="0.62"/>
						</g>
						<g>
							
								<rect x="394.37" y="199.34" transform="matrix(0.9376 -0.3478 0.3478 0.9376 -43.9693 154.3804)" class="st6" width="27.23" height="0.62"/>
						</g>
						<g>
							
								<rect x="395.09" y="201.3" transform="matrix(0.9376 -0.3478 0.3478 0.9376 -44.605 154.7568)" class="st6" width="27.23" height="0.62"/>
						</g>
						<g>
							
								<rect x="395.82" y="203.25" transform="matrix(0.9376 -0.3478 0.3478 0.9376 -45.2402 155.13)" class="st6" width="27.23" height="0.62"/>
						</g>
						<g>
							
								<rect x="396.55" y="205.21" transform="matrix(0.9376 -0.3478 0.3478 0.9376 -45.8757 155.5047)" class="st6" width="27.23" height="0.62"/>
						</g>
						<g>
							
								<rect x="397.27" y="207.17" transform="matrix(0.9376 -0.3478 0.3478 0.9376 -46.511 155.879)" class="st6" width="27.23" height="0.62"/>
						</g>
						<g>
							
								<rect x="398" y="209.12" transform="matrix(0.9376 -0.3478 0.3478 0.9376 -47.1469 156.256)" class="st6" width="27.23" height="0.62"/>
						</g>
						<g>
							
								<rect x="398.72" y="211.08" transform="matrix(0.9376 -0.3478 0.3478 0.9376 -47.7822 156.6293)" class="st6" width="27.23" height="0.62"/>
						</g>
						<g>
							
								<rect x="399.45" y="213.04" transform="matrix(0.9376 -0.3478 0.3478 0.9376 -48.4176 157.0041)" class="st6" width="27.23" height="0.62"/>
						</g>
						<g>
							
								<rect x="399.68" y="182.31" transform="matrix(0.9376 -0.3478 0.3478 0.9376 -46.1394 151.8925)" class="st6" width="0.62" height="44.29"/>
						</g>
						<g>
							
								<rect x="401.8" y="181.52" transform="matrix(0.9376 -0.3478 0.3478 0.9376 -45.7316 152.5804)" class="st6" width="0.62" height="44.29"/>
						</g>
						<g>
							
								<rect x="403.93" y="180.73" transform="matrix(0.9375 -0.3479 0.3479 0.9375 -45.3274 153.299)" class="st6" width="0.62" height="44.29"/>
						</g>
						<g>
							
								<rect x="406.06" y="179.94" transform="matrix(0.9376 -0.3478 0.3478 0.9376 -44.9169 153.9617)" class="st6" width="0.62" height="44.29"/>
						</g>
						<g>
							
								<rect x="408.18" y="179.15" transform="matrix(0.9375 -0.3479 0.3479 0.9375 -44.5118 154.6747)" class="st6" width="0.62" height="44.29"/>
						</g>
						<g>
							
								<rect x="410.31" y="178.36" transform="matrix(0.9375 -0.3479 0.3479 0.9375 -44.1047 155.3685)" class="st6" width="0.62" height="44.29"/>
						</g>
						<g>
							
								<rect x="412.44" y="177.57" transform="matrix(0.9375 -0.3479 0.3479 0.9375 -43.6973 156.0591)" class="st6" width="0.62" height="44.29"/>
						</g>
						<g>
							
								<rect x="414.57" y="176.78" transform="matrix(0.9376 -0.3478 0.3478 0.9376 -43.2875 156.7243)" class="st6" width="0.62" height="44.29"/>
						</g>
						<g>
							
								<rect x="416.69" y="175.99" transform="matrix(0.9376 -0.3477 0.3477 0.9376 -42.8763 157.3716)" class="st6" width="0.62" height="44.29"/>
						</g>
					</g>
				</g>
			</g>
		</g>
		<g>
			<g>
				<path class="st15" d="M328.54,327.06c0,0-1.89,4.68-3.51,4.68s-6.21-1.61-10.35-1.25c-4.14,0.36-20.7,8.81-29.16,8.72
					l-5.94,13.68c0,0,11.25-4.41,19.8-5.76c8.55-1.35,33.39-1.98,37.44-3.42c4.05-1.44,12.6-20.34,12.6-20.34L328.54,327.06z"/>
				<path class="st16" d="M328.54,327.06c0,0-0.67,1.66-1.56,3c1.15-0.35,3.99,1.14,7.14,4.33c2.39,2.42,4.76,4.41,7.33,4.08
					c3.87-6.05,7.96-15.11,7.96-15.11L328.54,327.06z"/>
				<path class="st7" d="M284.87,338.64c0,0,4.08,1.26,16.31-3.89c0,0,6.37,5.09,2.47,12.17c0,0-8.4,1.2-13.92,3.12
					c-5.52,1.92-10.8,3.48-10.8,3.48L284.87,338.64z"/>
				<g>
					<path class="st6" d="M283.61,335.88c0,0,4.11,3,4.23,6.24c0.11,2.84-3.16,3.97-4.51,6.76c-1.35,2.79-0.13,4.18-4,5.53
						c-3.87,1.35-7.65,0.49-12.73,3.37c-5.08,2.88-11.11,0-11.11,0L283.61,335.88z"/>
					<path class="st7" d="M266.02,355.47c7.2-4.94,8.05-8.59,11.16-10.66c3.1-2.07,6.93-5.53,6.48-8.59
						c-0.12-0.81-2.18-2.54-2.71-2.91c-1.48-1.02-27.45,22.79-27.43,24.15c0.16,0.15,1.84,1.26,2.07,1.35
						C257.55,359.6,261.91,358.29,266.02,355.47z"/>
					<path class="st0" d="M264.34,354.33c7.2-4.94,8.05-8.59,11.16-10.66c3.1-2.07,6.93-5.53,6.48-8.59
						c-0.45-3.06-4.41-2.84-7.74-0.27c-3.33,2.57-2.43,4.95-8.73,6.93c-6.3,1.98-9.54,6.75-11.07,9.63
						c-0.64,1.21-2.24,4.89-1.12,5.94C254.85,358.75,259.75,357.48,264.34,354.33z"/>
				</g>
			</g>
			<g>
				<g>
					<path class="st15" d="M385.3,308.82c0,0,13.08,0.12,16.92,0.72c3.84,0.6,6.36,9,9.84,11.52c3.48,2.52,10.44,4.32,17.64,13.56
						c7.2,9.24,6.72,10.32,6.72,10.32l10.8-0.84c0,0-36.6-45.71-39.6-48.11c-3-2.4-18.12-5.76-18.12-5.76
						S386.38,305.58,385.3,308.82z"/>
					<path class="st16" d="M399.66,301.62c0.56-2.04,2.23-6.24,1.29-8.39c-5.25-1.62-11.45-3-11.45-3s-3.12,15.36-4.2,18.6
						c0,0,5.87,0.05,10.91,0.27C397.6,306.73,398.91,304.34,399.66,301.62z"/>
				</g>
				<path class="st15" d="M435.24,342.36c1.34,2.2,1.17,2.58,1.17,2.58l10.8-0.84c0,0-0.51-0.63-1.39-1.74H435.24z"/>
				<path class="st7" d="M421.44,327.12c-0.16-0.23,6.22-6.24,7.54-6.18c1.32,0.06,13.38,16.68,14.94,18.3
					c1.56,1.62-8.69,2.8-9.99,1.88c-1.29-0.92-3.63-4.82-7.05-8.3C422.84,328.72,421.77,327.6,421.44,327.12z"/>
				<g>
					<path class="st6" d="M432.26,339.31c0,0,3.01,2.42,6.83,1.25c3.82-1.17,0.75-4.51,0.56-6.05c-0.19-1.54,0.81-1.63,2.23-0.21
						c1.54,1.54,14.93,7.65,18.26,8.42c3.33,0.76,4.27,3.06,4.14,4.05c-0.14,0.99-7.2,1.75-14.49,2.2
						c-7.29,0.45-18.4,0.32-18.85-0.22C430.5,348.21,430.84,339.49,432.26,339.31z"/>
					<g>
						<path class="st7" d="M464.11,347.02C464.11,347.01,464.11,347.01,464.11,347.02c-1.13,0.87-7.62,1.55-14.31,1.96
							c-7.06,0.44-17.7,0.32-18.78-0.17v0c-0.23,0.68-0.13,1.53-0.02,1.66c0.45,0.54,11.5,0.78,18.79,0.33
							c7.29-0.45,14.35-1.21,14.49-2.2C464.33,348.29,464.29,347.46,464.11,347.02z"/>
					</g>
				</g>
			</g>
			<g>
				<path class="st17" d="M330.1,288.55c0,0-3.24,5.04-1.32,14.52c1.92,9.48,0.6,22.94-1.8,25.09c0,0,3.48,3.97,10.68,1.56
					c7.2-2.41,12.12-5.65,16.44-6.01c0,0,1.32-11.16,0.96-14.64c0,0,26.88,4.56,29.28,4.32c2.4-0.24,12.87-15.12,12.87-21.24
					c0,0-18.62-7.56-29.55-11.16C356.74,277.39,330.1,288.55,330.1,288.55z"/>
				<g class="st18">
					<path class="st17" d="M367.66,280.99c-10.92-3.6-37.56,7.56-37.56,7.56s-3.24,5.04-1.32,14.52c0.5,2.45,0.78,5.17,0.88,7.89
						c1.4-5.58,42.62-2.61,41.45-28.8C369.9,281.74,368.74,281.34,367.66,280.99z"/>
					<path class="st17" d="M354.57,319.28c0.34-3.52,0.7-8.18,0.49-10.22c0,0-7.35-1.2-10.92-1.56
						C340.57,307.14,355.04,314.86,354.57,319.28z"/>
				</g>
			</g>
		</g>
		<g>
			<path class="st15" d="M392.71,242.92c0,0,21.82-1.93,23.71-2.52c1.89-0.58,5.44-5.49,6.07-5.94c0.63-0.45,4.98-0.15,5.73,0
				c0.75,0.15,0.21,2.79,0.21,2.79s1.36,3.62,1.35,4.63c0,0.67-0.66,2.47-1.35,2.38c-0.69-0.09-0.33-0.96-1.05-1.11
				c-0.72-0.15-1.77,2.49-2.64,2.97c-0.87,0.48-2.04,0.57-3.96,0.3c-1.92-0.27-14.53,6.07-18.18,6.66
				c-3.64,0.58-13.86-0.32-14.67-0.32C387.13,252.78,389.65,243.2,392.71,242.92z"/>
			<path class="st16" d="M393.75,242.83c-0.66,0.06-1.04,0.09-1.04,0.09c-3.06,0.28-5.58,9.85-4.77,9.85c0.38,0,2.87,0.2,5.76,0.35
				C393.28,252.41,395.02,247.98,393.75,242.83z"/>
			<path class="st16" d="M428.43,244.27c0.69,0.09,1.35-1.72,1.35-2.38c0.01-1.01-1.35-4.63-1.35-4.63s0.54-2.64-0.21-2.79
				c-0.58-0.12-3.3-0.32-4.8-0.2c0.39-0.03,1.61-0.03,1.59,0.98c-0.03,1.2,1.65,4.08,2.1,4.59c0.45,0.51,0.63,2.29-0.37,3.71
				c0,0,0,0,0,0c0.23-0.26,0.44-0.42,0.64-0.38C428.1,243.31,427.74,244.18,428.43,244.27z"/>
		</g>
		<path class="st13" d="M363.34,227.83c0.25-0.48,12.6-3.51,13.68-4.11c1.08-0.6,1.92-3.16,2.68-4.2c0.76-1.03,4.24-3.65,4.54-4.4
			c0.3-0.75,0.35-1.35,0.92-1.35c0.64,0,1.06,1.33,0.86,2.72c-0.2,1.4-2.2,3.04-2.42,3.47c0,0,4.49-0.34,5.28-0.05
			c0.79,0.29,0.42,1.1-0.06,1.28c-0.77,0.28-4.51,0.46-4.71,0.7c-0.2,0.25,5.52-0.05,6.06,0.15c0.77,0.28,0.54,1.36-0.12,1.49
			c-0.65,0.13-4.6,0.46-4.96,0.59c-0.36,0.14,5.48-0.16,6.16,0.01c0.67,0.18,0.65,1.39-0.22,1.55c-0.88,0.16-5.85,0.56-6.1,0.76
			c-0.25,0.2,5.79,0.9,6.17,1.25c0.38,0.35,0.09,1.27-0.81,1.36c-0.9,0.09-5.35-0.34-5.74-0.27c-0.38,0.07-3.46,1.48-4.79,1.42
			c-0.15-0.01-1.87-0.31-2.27-0.24c-3.19,0.58-12.39,5.01-12.94,5.01C363.93,235,362.82,228.84,363.34,227.83z"/>
		<path class="st2" d="M374.18,224.63c-3.98,1.13-10.66,2.85-10.84,3.2c-0.52,1,0.59,7.17,1.2,7.17c0.46,0,7.19-3.2,11.15-4.52
			C374.75,228.66,374.2,226.65,374.18,224.63z"/>
		<g>
			<path class="st8" d="M358,216.86c0,0-4.38-5.29-10.92-3.07c-6.54,2.22-9.6,11.23-9.78,23.17c-0.15,9.66,1.68,28.47-1.02,34.68
				c-2.7,6.21-8.82,14.4-9.81,18.09c0,0,9.6,15.26,25.29,11.52c21.51-5.13,16.83-33.75,19.23-46.64c4.43,0.35,12.18,2.37,14.97,2.64
				c2.79,0.27,7.56-10.26,6.75-14.31c-7.25-2.3-13-4.66-17.79-6.98c-4.8-2.32-8.82-5.98-11.62-10.51L358,216.86z"/>
			<path class="st19" d="M356.59,226.59c8.51,9.58,18.71,12.69,24.31,12.03c-2.1-0.87-4.04-1.75-5.84-2.62
				c-4.85-2.34-8.92-6-11.75-10.57l-0.24-0.39C362.45,225.73,356.39,226.36,356.59,226.59z"/>
			<path class="st20" d="M358,216.86c0,0-2.57-3.08-6.69-3.55c1.77,0.34,3.07,4.21,0.36,4.78c-2.77,0.59-5.5,2.22-4.57,1.84
				c3.22-1.32,6.52-1.45,4.9-0.84c-1.63,0.62-2.61,1.71-2.11,1.61c3.05-0.59,5.25,0.02,4.71,0.56c0,0,1.21,1.77,1.33,1.77
				c0.06,0,1.49-2.01,3.03-4.19L358,216.86z"/>
			<path class="st8" d="M363.2,254.86c-1.62,0.84,6.74,9.05,6.53,16.26c0.45-6.28,0.47-12.27,1.26-16.53
				C370.49,254.49,364.82,254.03,363.2,254.86z"/>
		</g>
		<g>
			<path class="st16" d="M354.6,221.25c0,0,2.49-0.33,3.4-2.07l13.67,6.89c-4.46-0.5-7.18,3.29-8.17,4.41
				C362.13,232.02,352.77,224.97,354.6,221.25z"/>
			<path class="st6" d="M360.47,220.43c0,0-1.87,1.99-2.28,1.83c-0.41-0.16-0.99-1.67-1.11-2.02c-0.12-0.35,1.68-1.61,1.46-5.64
				c-0.22-4.03-0.63-9.01-0.31-9.8c0.31-0.79,15.52,0.18,16.42,0.67c0.48,0.26-0.68,6.03-0.52,6.8c0.16,0.77-7.59,9.99-7.59,9.99
				L360.47,220.43z"/>
			<path class="st15" d="M361.4,216.86c-1.77,0.08-1.49,1.96-1.16,3c0.46,1.42,1.91,2.79,2.69,1.91c0,0,0.36,1.72,0.99,3.11
				c0.63,1.39,6.93,4.12,8.61,3.23c1.26-0.66,1.15-7.92,1.34-9.34c0.19-1.43,0.88-2.16,0.9-2.77s-0.57-3.36-0.73-4.16
				c-0.17-0.8-1.91,0.78-4.22,0c-2.31-0.78-5.94-2.79-5.73-2.41c0.15,0.28,3.36,1.68,3.55,2.31c0.19,0.63-0.99,3.4-0.99,3.82
				c0,0.42-1.36,0.44-1.51,0.88c-0.15,0.44-0.29,3.23-0.34,3.57c-0.04,0.34-1.13,0.15-1.15-0.15
				C363.62,219.57,363.33,216.78,361.4,216.86z"/>
		</g>
	</g>
	<g>
		<path class="st10" d="M177.68,187.14c0,0,1.86,4.82,19.75,9.95c17.89,5.13,20.35-5.61,20.35-5.61l-0.6-12.18
			c0,0-34.15-4.66-34.38-4.97C182.58,174.02,178.22,180.85,177.68,187.14z"/>
		<g>
			<path class="st21" d="M177.85,237.78c0,0-1.52,13.85-1.06,17.43c0.45,3.58,20.24,21.59,23.31,23.13c0,0,7.05-6.74,6.7-7.64
				c-0.35-0.9-13.91-14.5-15.21-16.38c-1.3-1.88,0.62-13.49,0.62-13.49L177.85,237.78z"/>
			<path class="st7" d="M206.56,269.81c1.89,2.71,9.25,15.17,13.43,19.27c0,0-1.21,5.73-3.83,7.39c-0.56,0.36-3.18-1.54-3.64-1.41
				c0,0-2.37-4.15-5.74-8.52c-2.73-3.53-6.42-7.29-7.62-8.46C197.99,276.93,205.8,268.72,206.56,269.81z"/>
			<g>
				<path class="st8" d="M228.02,291.7c0.3,0.47-5.99,14.4-9.32,18.64c-1.38,1.76-5.02,5.04-5.2,4.73
					c-0.69-1.19-0.99-2.88-0.88-3.68c0.16-1.26,1.42-9.26,1.08-11.18c-0.34-1.92-2.19-5.29-3.8-6.35c0,0,0.56-0.09,1.7-0.05
					c1.13,0.05,3.51,2,3.63,1.64c0.16-0.49-1.78-3.11-1.89-4.44c-0.11-1.33,4.27-4.5,3.54-5.65c0.61-0.63,1.33,0.17,3.51,2.27
					C221.39,288.58,226.5,289.29,228.02,291.7z"/>
				<g>
					<path class="st6" d="M218.7,310.34c3.16-4.02,8.98-16.77,9.31-18.46c0.47,0.24,0.7,0.68,1.02,1.18
						c0.3,0.47-5.99,14.4-9.32,18.64c-1.38,1.76-5.02,5.04-5.2,4.73c-0.26-0.46-0.47-0.98-0.62-1.51
						C214.91,314.25,217.57,311.78,218.7,310.34z"/>
				</g>
				<path class="st22" d="M211.59,293.81c1.13,0.05,3.51,2,3.63,1.64c0.16-0.49-1.78-3.11-1.89-4.44c-0.05-0.65,0.98-1.76,1.96-2.84
					c0.8,6.19,6.38,12.44,9.66,14.42c-1.78,3.6-3.78,7.27-5.23,9.11c-1.38,1.76-5.02,5.04-5.2,4.73c-0.26-0.46-0.47-0.98-0.62-1.51
					c-0.22,0.14-0.37,0.21-0.4,0.15c-0.69-1.19-0.99-2.88-0.88-3.68c0.16-1.26,1.42-9.26,1.08-11.18c-0.34-1.92-2.19-5.29-3.8-6.35
					C209.89,293.85,210.46,293.76,211.59,293.81z"/>
			</g>
		</g>
		<g>
			<g>
				<path class="st23" d="M204.57,251.49c0.22,0.39-0.36,3.55,0.19,5.63c0.55,2.08,7.28,22.21,7.7,31.42l-10.14,2.23
					c0,0-12.75-28.54-13.33-32.08c-0.58-3.54-0.58-11.09-0.58-11.09L204.57,251.49z"/>
				<path class="st21" d="M188.77,256.93c-0.37-3.81-0.37-9.33-0.37-9.33l16.17,3.88c0.2,0.36-0.26,2.99,0.06,5.03
					C199.72,254.87,193.42,254.76,188.77,256.93z"/>
			</g>
			<path class="st0" d="M213.36,287.76c0.26,4.05,1.25,21.15,3.03,28.14c0,0-3.8,4.38-7.47,4.74c-1.4,0.14-3.32-2.97-4.2-3.21
				c0,0,0.16-5.88-0.6-12.63c-0.61-5.46-2.1-11.78-2.62-13.77C200.99,289.07,213.26,286.13,213.36,287.76z"/>
			<g>
				<path class="st8" d="M221.31,323.46c0.01,0.69-3.85,3.57-7.32,6.94c-2.34,2.28-5.94,7.14-12.14,9.47
					c-2.58,0.97-8.9-0.33-8.89-0.78c0.04-1.7,0.8-3.66,1.42-4.43c0.98-1.23,7.41-8.84,8.28-11.08c0.87-2.24,0.23-6.83-0.79-8.98
					c0,0,2.69-0.29,3.86,0.48c1.16,0.77,2.77,4.02,3.12,3.72c0.49-0.41,0.12-4.41,0.85-5.88c0.73-1.47,5.89-1.18,5.64-2.82
					c1.15-0.42,1.43,0.9,2.39,4.5C218.17,316.27,221.25,319.95,221.31,323.46z"/>
				<g>
					<path class="st6" d="M201.84,339.88c6.2-2.33,9.8-7.2,12.14-9.47c3.13-3.04,6.57-5.68,7.21-6.68c0,0,0,0,0,0.01
						c0.16,0.58,0.31,1.76,0.25,2.38c-0.07,0.68-4.43,3.95-7.9,7.32c-2.34,2.28-5.94,7.14-12.14,9.47
						c-2.58,0.97-8.67-0.32-8.66-0.77c0.02-0.77-0.02-2.3,0.21-3.04C192.95,339.55,199.26,340.85,201.84,339.88z"/>
				</g>
			</g>
		</g>
		<g>
			<path class="st23" d="M217.79,191.48c0,0-0.41,4.71,0,6.3c0,0-27.55,3.97-29.2-8.58c-0.16-1.23-0.49-9.36-0.92-9.53
				C187.67,179.67,216.71,185.14,217.79,191.48z"/>
			<path class="st21" d="M188.47,187.6c-0.18-2.75-0.46-7.81-0.79-7.93c0,0,29.03,5.47,30.12,11.81c0,0-0.04,0.45-0.08,1.12
				C209.39,186.85,188.47,187.6,188.47,187.6z"/>
			<g>
				<path class="st8" d="M188.47,187.7c0.01,5.84-7.82,25.41-13.69,51.66c0.97,3.69,10.27,3.88,10.27,3.88s-0.4,3.82-0.49,5.72
					c1.98,4.56,18.68,6,21.18,3.75c1.19-3.94,4.52-19.31,5.66-23.42c1.14-4.11,6.71-11.18,7.94-17.83
					c1.23-6.64,0.05-14.84-1.75-16.31C217.1,198.79,189.02,195.5,188.47,187.7z"/>
				<path class="st24" d="M186.98,195.23c0.93-3.4,1.5-5.96,1.49-7.53c0.55,7.8,28.62,11.09,29.14,7.45
					c1.68,1.37,2.82,8.62,1.96,14.99C216.18,204.6,200.09,196.18,186.98,195.23z"/>
				<path class="st24" d="M175.9,240.93L175.9,240.93c4.93,1.67,13.08-23.46,12.27-19.19c-1.29,6.82-3.11,21.49-3.11,21.49
					S178.61,243.11,175.9,240.93z"/>
			</g>
		</g>
		<g>
			<path class="st21" d="M219.1,69.67c-4.24-0.31,0.94-12.94,1.22-15.47c0.13-1.24-2.9-0.39-4.72,0.83
				c-1.81,1.22-1.92,4.77-1.92,4.77l-1.45,10.99C212.24,70.8,218.71,70.71,219.1,69.67z"/>
		</g>
		<g class="st25">
			<path class="st21" d="M219.1,69.67c-4.24-0.31,0.94-12.94,1.22-15.47c0.13-1.24-2.9-0.39-4.72,0.83
				c-1.81,1.22-1.92,4.77-1.92,4.77l-1.45,10.99C212.24,70.8,218.71,70.71,219.1,69.67z"/>
		</g>
		<g>
			
				<ellipse transform="matrix(0.9316 -0.3636 0.3636 0.9316 -4.506 86.7043)" class="st2" cx="228.07" cy="55.32" rx="15.06" ry="15.06"/>
			<g>
				<path class="st6" d="M220.79,47.34c0.73-1.07,1.53-2.04,2.41-2.91c-1.08-0.48-2.18-1.05-3.31-1.75
					c0.46-0.29,0.93-0.56,1.41-0.81c1.04,0.6,2.06,1.1,3.06,1.51c0.85-0.7,1.76-1.31,2.73-1.82c0.94-0.49,1.91-0.88,2.9-1.16
					c0.07,0.01,0.15,0.02,0.22,0.03c1.12,0.16,2.2,0.45,3.22,0.84c-2,0.11-3.91,0.62-5.68,1.55c-0.64,0.34-1.25,0.73-1.84,1.16
					c2.22,0.75,4.33,1.15,6.33,1.53c3.47,0.66,6.66,1.27,9.45,3.43c0.44,0.94,0.79,1.94,1.03,2.97c-2.95-3.53-6.53-4.21-10.75-5.01
					c-2.3-0.44-4.76-0.91-7.35-1.87c-0.89,0.81-1.7,1.74-2.44,2.77c6.71,2.25,14.3,6.88,19.45,14.05c-0.23,0.47-0.48,0.93-0.75,1.38
					c-5.07-7.41-12.79-12.1-19.47-14.26c-1.13,1.85-2.04,3.98-2.71,6.35c2.32,1.15,4.03,3.17,5.86,5.35c2.4,2.84,5.06,6,9.7,8.39
					c-0.56,0.25-1.14,0.48-1.73,0.66c-4.26-2.46-6.86-5.54-9.05-8.14c-1.77-2.1-3.26-3.86-5.14-4.88c-0.66,2.79-1.01,5.88-1.03,9.2
					c-0.49-0.5-0.95-1.04-1.37-1.61c0.12-2.92,0.48-5.65,1.09-8.16c-1.14-0.37-2.45-0.49-4.03-0.3c-0.01-0.47-0.01-0.94,0.02-1.42
					c1.69-0.17,3.12-0.01,4.37,0.38c0.67-2.31,1.55-4.4,2.63-6.24c-1.76-0.49-3.42-0.79-4.91-0.92c0.27-0.45,0.55-0.88,0.86-1.29
					C217.48,46.51,219.1,46.84,220.79,47.34z"/>
			</g>
		</g>
		<g>
			<path class="st21" d="M209.94,115.26c0,0-2.47-4.57-3.3-6.24c-0.83-1.67,9.91-32.35,10.75-33.6c2.13-3.17,7.77-3.81,8.01-5.36
				c0.14-0.91-0.55-1.25-1.56-1.38c-1.82-0.23-3.62,0.44-4.68,0.65c-1.06,0.21-3.86,0.58-4.61-0.12c-1.2-1.11-1.01-5.91-0.95-7.17
				c0.06-1.26,0.27-3.48-0.26-3.88c-0.59-0.44-1.57,0.32-2,3.23c-0.42,2.91-0.36,11.74-0.96,13.35c-0.6,1.61-8.11,15.92-9.61,18.73
				s-4.92,11.63-5.32,13.15c-0.4,1.52,7.52,17.17,8.53,19.01C204.99,127.49,210.67,117,209.94,115.26z"/>
			<path class="st26" d="M208.21,112.06c0.87,1.64,1.72,3.21,1.72,3.21c0.73,1.74-4.95,12.23-5.96,10.38
				c-0.42-0.78-2.07-4-3.81-7.59C203.34,116.79,206.23,114.86,208.21,112.06z"/>
			<path class="st27" d="M220.27,126.45c-0.34-0.13-8.16-7.89-10.53-12.24c0,0-5.35,3.67-6.87,9.17
				c-1.52,5.51,14.02,13.96,17.58,14.43C224.02,138.28,225.24,128.43,220.27,126.45z"/>
		</g>
		<g>
			<path class="st28" d="M236.49,130.52c0,0,1.19-2.08,5.43-3.86c3.22-1.35,5.61-3.58,4.66-8.24c-0.95-4.66-5.82-7.52-7.74-7.87
				c-1.92-0.34-3.31,1.54-3.31,1.54S230.43,127.29,236.49,130.52z"/>
			<path class="st21" d="M223.53,121.11c-0.29,1.27,2.28,3.43,2.35,3.82c0.07,0.39-1.39,4.21-1.39,4.21s10.13,5.22,10.47,5.49
				c0,0,0.77-2.44,1.52-4.11c0,0-1.02-3.27,2.44-5.78c1.78-1.3-0.1-1.77-0.1-1.77S225.28,118.55,223.53,121.11z"/>
			<path class="st23" d="M234.85,123.79c0.73,0.88,3.42,2.22,4.79,0.26c1.37-1.97-0.65-2.91-3.17-2.45
				c-0.4,0.07,2.45-2.97,2.48-3.29c0.02-0.21-0.01-1.38,0.35-1.76c0.78-0.83,1.74-1.24,1.46-2.04c-0.62-1.79-2.6-2.57-3.71-2.64
				c-1.11-0.07-4.41,1.03-6.9,2.79c-0.95,0.68-6.1,5.43-6.62,6.46c1.3-1.06,4.14,2.09,7.38,3.29
				C232.54,125,234.17,124.48,234.85,123.79z"/>
		</g>
		<path class="st21" d="M218.63,120.59"/>
		<g>
			<path class="st7" d="M238.68,140.12c0,0-1.22,5.83-9.82,22.59c-5.53,10.77-10.85,20.98-11.07,28.77
				c0.35-1.51-38.78-12.34-40.11-4.34c0,0-1.39-8.58,5.06-18.01c6.45-9.43,24.24-35.6,32.08-38.9
				C222.66,126.92,238.68,140.12,238.68,140.12z"/>
			<g>
				<path class="st10" d="M230.26,147.36c-15.54-1.89-26.42,7.98-36.37,5.87c7.43-10.17,16.08-20.97,20.94-23.01
					c6.19-2.61,17.46,5.06,21.94,8.41C236.62,138.66,233.49,147.76,230.26,147.36z"/>
			</g>
		</g>
		<g>
			<path class="st27" d="M208.72,140.98c0,0-2.02-0.08-2.36-7.77c-0.34-7.69,13.26,3.43,13.26,3.43S213.13,142.55,208.72,140.98z"/>
			<path class="st23" d="M210.94,124.39c0,0-5.02-1.13-6.59-2.54c-1.57-1.41-11.71-23.42-12.34-25.06
				c-0.63-1.64,1.91-3.68,2.62-4.91c0.75-1.3,3.52-3.16,4.31-3.8c0.79-0.64-0.71-1.63-1.61-1.42c-0.88,0.21-3.83,1.96-4.58,1.94
				c-0.76-0.02-1.14-3.44-1.21-4.81c-0.07-1.37,0.63-8.94,0.66-9.79c0.03-0.84-1.33-1.25-1.66-0.24c-0.33,1.01-1.49,8.03-1.77,8.47
				s-0.71,0.32-0.73,0.02c-0.02-0.31,0.24-9.03,0.28-9.72s-1.3-1.31-1.63-0.24c-0.34,1.07-1.15,9.23-1.38,9.53
				c-0.23,0.3-2.61-7.92-2.86-8.54s-1.63-0.45-1.57,0.62c0.06,1.07,2.35,8.67,2.15,9.22c-0.2,0.55-3.87-4.04-4.36-4.45
				c-0.49-0.4-1.82-0.02-1.11,1.17c0.71,1.19,3.2,4.68,3.68,5.59c0.47,0.92,0.83,6.18,1.38,7.87c0.41,1.26,2.04,2.9,2.47,3.48
				c0.43,0.58,7.1,27.61,8.45,30.45c1.35,2.85,19.9,12.01,21.38,13.14C216.37,141.51,218.47,126.96,210.94,124.39z"/>
			<path class="st29" d="M209.76,124.09c0.7,0.19,1.18,0.3,1.18,0.3c7.54,2.57,5.44,17.12,3.96,16c-0.55-0.42-3.44-1.94-6.94-3.84
				C211.4,134.77,209.82,124.28,209.76,124.09z"/>
			<path class="st30" d="M238.83,136.46c-0.92-4-4.63-7.62-12.31-8.87c-7.68-1.25-15.58-3.21-15.58-3.21
				c3.86,3.2,3.29,18.5-2.22,16.59c0,0,15.19,5.97,21.54,6.39C236.61,147.78,239.62,139.86,238.83,136.46z"/>
		</g>
	</g>
	<g>
		<g>
			<g>
				<g>
					<g>
						<g>
							<path class="st6" d="M238.96,307.4c0,0-1.38,0.3-1.91,0.43c-0.31,0.08-0.32,1.47-0.12,1.79c0.2,0.33,2.21,0.58,2.21,0.58
								S239.29,307.55,238.96,307.4z"/>
							<path class="st6" d="M239.03,311.07c0,0-1.35,0.42-1.87,0.59c-0.3,0.1-0.2,1.49,0.03,1.79c0.23,0.31,2.25,0.39,2.25,0.39
								S239.37,311.19,239.03,311.07z"/>
							<path class="st6" d="M240.4,323.72c0,0-1.32,0-1.83,0.01c-0.3,0.01-0.59,1.28-0.47,1.61c0.12,0.34,1.9,0.98,1.9,0.98
								S240.66,323.92,240.4,323.72z"/>
							<path class="st6" d="M239.53,330.16c0,0-1.06,0.46-1.47,0.65c-0.24,0.11-0.02,1.23,0.19,1.46c0.22,0.23,1.87,0.12,1.87,0.12
								S239.82,330.22,239.53,330.16z"/>
							<path class="st6" d="M240.5,333.86c0,0-0.64,0.97-0.88,1.34c-0.14,0.22,0.72,1.01,1.06,1.01c0.32,0,1.53-0.8,1.53-0.8
								S240.77,333.76,240.5,333.86z"/>
						</g>
						<g>
							<path class="st7" d="M274.35,291.91c0.78,4.35-18.72,14.9-24.04,25.75c-0.45,0.92-3.18,6.11-4.1,6.48
								c-2.5,1-3.8-2.8-4.01-4.24c-0.56-3.89-0.08-12.33,3.84-15.24c4.09-3.04,8.88-10.49,11.24-15.23
								c1.91-3.83,7.17-11.28,11.17-11.35C272.44,278.01,274.35,291.91,274.35,291.91z"/>
							<path class="st8" d="M261.12,283.5c0.31-0.4,0.64-0.79,0.97-1.16c-0.04,0.12-0.07,0.24-0.1,0.38
								c-1.4,7.18,2.59,14.33,5.96,16.1c0.18,0.1,0.39,0.19,0.6,0.26c-0.21,0.18-0.42,0.36-0.64,0.54c-0.1-0.04-0.2-0.09-0.3-0.14
								C264.18,297.67,260.15,290.69,261.12,283.5z"/>
						</g>
						<path class="st8" d="M249.84,318.17c1.13-2.4-1.82-4.54-4.16-1.8l-0.22,5.52c0,0,3.05,0.69,3,0.61
							C248.4,322.41,249.84,318.17,249.84,318.17z"/>
						<path class="st10" d="M246.04,304.65c-1.17,0.69-4.85-0.4-7.18,1.74c-2.03,1.87,1.26,11.91,0.82,14.28
							c-0.43,2.38-1.98,5.34-1.34,10.05c0.64,4.71,4.24,6.94,7.21,6.33c2.25-0.46,2.27-7.88,3.03-12.54
							c0.83-5.15,2.86-7.55,2.86-7.55s-2.49-0.11-4.08,3.94c0,0,1.2-2.9-1.04-4.99C244.09,313.81,242.67,308.46,246.04,304.65z"/>
					</g>
					<path class="st6" d="M265.71,257.74c0,0,2.52,1.46,14.37,0.83c11.85-0.63,7.27-6.48,2.27-6.92
						C277.35,251.22,265.62,254.51,265.71,257.74z"/>
					<g>
						<path class="st15" d="M294.41,257.87c0,0-3.34,11.73-6.51,17.23c-3.17,5.5-3.73,9.03-5.57,10.8
							c-1.49,1.44-3.87,2.93-8.31,7.46c-2.44,2.48-8.54-5.72-7.12-13c0.56-2.87,3.66-2.53,4.1-5.25c0.44-2.71-0.56-17.36-0.76-20.29
							C270.05,251.89,292.97,248.31,294.41,257.87z"/>
						<path class="st16" d="M270.71,262.09c-0.19-3.26-0.38-6.14-0.46-7.27c-0.2-2.94,22.72-6.51,24.16,3.05
							c0,0-0.28,0.99-0.76,2.53C287.14,256.92,273.47,260.26,270.71,262.09z"/>
					</g>
				</g>
				<g>
					<path class="st8" d="M291.95,211.45c0,0,5.58,18.36,5.2,27.64c-0.38,9.28-2.54,19.05-2.8,19.05c0.04-0.31,0.81-3.23-8.35-3.65
						c-10.43-0.48-19.89,1.41-20.29,3.26c-2.26-0.24,3.44-8.8,2.08-23.19c-1.35-14.39-11.98-19.49-11.98-19.49s2.74-2.63,1.84-5.35
						C257.66,209.71,285.14,214.7,291.95,211.45z"/>
					<path class="st24" d="M291.95,211.45c0,0,5.58,18.36,5.2,27.64c-0.38,9.28-2.54,19.05-2.8,19.05c0.04-0.31,0.81-3.23-8.35-3.65
						c-10.43-0.48-19.89,1.41-20.29,3.26c-2.26-0.24,3.44-8.8,2.08-23.19c-1.35-14.39-11.98-19.49-11.98-19.49s2.74-2.63,1.84-5.35
						C257.66,209.71,285.14,214.7,291.95,211.45z"/>
				</g>
			</g>
			<g>
				<g>
					<path class="st6" d="M270.05,251.89c0,0,4.06,3.05,13.24-6.86c9.66-10.42-9.48-10.78-9.91-10.72
						C272.95,234.38,265.77,246.6,270.05,251.89z"/>
					<g>
						<path class="st15" d="M294.37,226.51c0,0,15.23,12.52,18.83,17.63c1.18,1.67-0.67,9.62-0.93,18.24
							c-2.55-0.86-12.8-0.29-15.88,0.7c0.72-3.81,2.16-7.01,2.16-7.91c-0.01-1.47-19.02-9.37-24.19-12.9
							C269.19,238.74,278.78,220.67,294.37,226.51z"/>
						<path class="st16" d="M294.37,226.51c0,0,0.61,0.5,1.6,1.33c-0.07,0.02-0.13,0.03-0.2,0.06
							c-8.39,2.84-11.82,10.89-12.73,19.01c-3.63-1.77-6.94-3.45-8.68-4.64C269.19,238.74,278.78,220.67,294.37,226.51z"/>
					</g>
					<path class="st8" d="M294.37,226.51c1.79-1.47-31.51-20.56-37.9-17.14c-5.49,2.95-2.76,15.68-0.89,21.78
						c3.21,10.45,9.77,13.87,14.47,20.73c-1.19-1.41-0.95-5,5.18-10.15C282.22,235.86,282.94,226.58,294.37,226.51z"/>
					<g>
						<g>
							<path class="st7" d="M299.49,293.96c-0.54-6.27-3.54-20.49-3.5-31.07c0.06-0.33,7.59-4.01,16.53-0.74
								c-0.5,12.01-2.16,26.01-2.56,35.59c-0.18,4.3,1.93,9.55,1.88,10.59c0,0-6.87,4.88-13.95-7.15
								C298.55,300.62,299.96,299.33,299.49,293.96z"/>
							<g>
								<path class="st8" d="M312.3,266.49c-0.02,0.25-0.03,0.51-0.05,0.76c-7.63-2.47-14.14-0.31-16.09,0.61
									c-0.02-0.27-0.03-0.53-0.05-0.8C298.68,265.91,305.07,264.21,312.3,266.49z"/>
							</g>
						</g>
						<g>
							<path class="st8" d="M313.78,313.27c-1-4.14-1.33-7.46-1.32-8.52c0-1.06-2.38-0.07-2.28,2.11
								C310.25,308.62,314.37,315.72,313.78,313.27z"/>
							<g>
								<path class="st6" d="M299.79,311.65c0.02,0.11-1.58,0.93-2.08,1.21c-0.43,0.24-1.58-0.92-1.38-1.3
									c0.2-0.38,0.98-2.4,1.24-2.38C297.82,309.19,299.68,311.11,299.79,311.65z"/>
								<path class="st6" d="M307.2,319.18c0,0.1-1.56,0.55-2.05,0.71c-0.42,0.14-1.24-1.08-1-1.39c0.24-0.31,1.27-1.95,1.5-1.89
									C305.89,316.67,307.2,318.68,307.2,319.18z"/>
								<path class="st6" d="M310.1,321.87c0.02,0.09-1.23,0.84-1.63,1.09c-0.34,0.22-1.33-0.66-1.19-0.98c0.14-0.32,0.67-2,0.88-2
									C308.38,319.98,309.98,321.43,310.1,321.87z"/>
								<path class="st6" d="M313.62,325.02c0.03,0.08-1.03,0.84-1.35,1.09c-0.28,0.22-1.23-0.48-1.13-0.78
									c0.1-0.3,0.44-1.82,0.62-1.83C311.96,323.47,313.49,324.64,313.62,325.02z"/>
								<path class="st6" d="M317.48,326.11c0.04,0.06-0.7,1.01-0.93,1.32c-0.2,0.27-1.22-0.11-1.21-0.4
									c0.01-0.29-0.08-1.74,0.08-1.8C315.59,325.16,317.26,325.81,317.48,326.11z"/>
								<path class="st6" d="M297.35,308.82c0.02,0.11-1.58,0.93-2.08,1.21c-0.43,0.24-1.59-0.92-1.38-1.3
									c0.2-0.38,0.98-2.4,1.24-2.38C295.38,306.36,297.24,308.28,297.35,308.82z"/>
							</g>
							<path class="st10" d="M314.99,316.44c-1.57-4.27-3.14-7.69-3.69-9.63c-0.5-1.76-5.57,0.6-8.14-0.49c-4.82-2.05-4.5-6-4.5-6
								c-0.16,0.03-4.32,1.76-4.34,5.93c0,0.33,0.12,0.64,0.33,0.89c0.69,0.84,2.56,2.98,5.87,6.08c4.33,4.06,7.23,8.98,11.73,12.06
								c4.5,3.07,6.99,1.84,7.46,0.91C320.18,325.26,315.96,319.06,314.99,316.44z"/>
						</g>
					</g>
				</g>
				<g>
					<path class="st15" d="M239.86,171.74c0,0-5.33,1.96-6.58,2.52c-1.25,0.56-3.93,5.02-7.28,8.29c-3.35,3.27-7.45,7.72-7.96,9.42
						c-0.52,1.7,0.77,5.21,0.37,6.79c-0.4,1.58-1.83,5.37-2.18,6.05c-0.34,0.68-1.59,0.5-2.09-0.58c0,0-3.3,0.65-4.5-0.84
						c-0.78-1.03-1.2-3.83-1.3-4.91c-0.11-1.08,3.48-7.34,4.34-8.81c0.86-1.47,10.5-19.2,13.22-21.17c2.73-1.97,5.56-2.35,8.56-3.81
						C234.46,164.69,239.76,169.98,239.86,171.74z"/>
					<g>
						<path class="st16" d="M209.64,203.39c-0.29-0.38-0.53-1.02-0.73-1.71c0.66,0.08,1.59,0.1,2.63-0.15
							c2.1-0.5,4.01-4.93,3.01-2.11c-1,2.83-0.42,4.81-0.42,4.81S210.84,204.88,209.64,203.39z"/>
						<path class="st16" d="M234.46,164.69c0,0,5.3,5.29,5.4,7.04c0,0-5.33,1.96-6.58,2.52c-0.35,0.16-0.83,0.64-1.39,1.31
							c0,0,0,0,0-0.01c1.44-1.83-0.71-8.79-3.19-8.6C230.56,166.16,232.47,165.66,234.46,164.69z"/>
					</g>
				</g>
				<path class="st31" d="M300.91,175.07c0,0,2.63,0.2,3.45-4.55c0.83-4.75-11.04-8.11-11.04-8.11S296.97,173.21,300.91,175.07z"/>
				<g>
					<g>
						<path class="st15" d="M303.92,159.37c0,0,12.98,6.28,14.93,6.8c1.95,0.52,4.44,11.32,3.3,11.27
							c-3.95-0.19-24.76-7.03-25.39-7.5C296.13,169.46,297.92,158.34,303.92,159.37z"/>
						<path class="st32" d="M313.19,163.75c2.6,1.2,4.93,2.22,5.67,2.42c1.95,0.52,4.44,11.32,3.3,11.27
							c-1.35-0.07-4.68-0.91-8.5-2.01C316.73,175.58,314.25,166.27,313.19,163.75z"/>
						<path class="st16" d="M303.92,159.37c0,0,0.61,0.29,1.58,0.76c-1.72,0.23-3.4,10.55-3.11,11.8c-3.14-1.03-5.42-1.84-5.63-1.99
							C296.13,169.46,297.92,158.34,303.92,159.37z"/>
					</g>
					<g>
						<path class="st4" d="M322.97,166.71c0,0,0.21,1.1,2.06,3.53c1.86,2.43,0.86,6.07-1.43,6.96c-2.3,0.88-5.43-1.08-6.35-3.93
							c-0.92-2.85-0.91-5.69-0.91-5.69L322.97,166.71z"/>
						<path class="st16" d="M324.24,161.69c0,0-0.23,4.6-1.16,6.31c-1.36,2.49-5.07,2.33-6.99,1.16c-1.92-1.17-2.81-4.91-2.83-5.81
							c-0.02-0.91,0.32-1.36,1.73-1.63C316.4,161.43,324.24,161.69,324.24,161.69z"/>
						<g>
							<path class="st4" d="M321.74,163.15c0,0-0.34,1.64,0.15,2.24c0.49,0.6,1.44,0.29,1.83-0.66c0.39-0.95,0.7-2.71,0.84-3.75
								c0.15-1.04-1.53-1.95-2.05-1.13C322.01,160.67,321.88,162.49,321.74,163.15z"/>
							<path class="st4" d="M319.21,165.15c0,0-0.01,1.35,0.95,1.6c0.75,0.19,1.47-0.29,1.64-1.3c0.17-1.01,0.79-4.65,0.7-5.7
								c-0.08-1.04-2.05-1.42-2.49-0.56C319.33,160.51,319.12,164.12,319.21,165.15z"/>
							<path class="st4" d="M316.6,164.58c0,0-0.01,1.71,1.15,1.99c0.76,0.18,1.31-0.52,1.48-1.55c0.17-1.03,0.85-5.02,0.77-6.08
								c-0.08-1.06-2.28-1.24-2.72-0.36C316.59,159.93,316.51,163.53,316.6,164.58z"/>
							<path class="st4" d="M314.36,163.14c0,0,0.25,1.49,0.9,1.92c0.65,0.42,1.46-0.16,1.54-1.19c0.08-1.03,0.46-4.17,0.29-5.21
								c-0.17-1.04-2.35-1.03-2.72-0.13C313.81,159.91,314.18,162.11,314.36,163.14z"/>
						</g>
					</g>
				</g>
				<path class="st2" d="M281.79,133.91c0,0,0.87-6.14-6.99-7.14c-6.62-0.83-10.32,3.85-10.28,8.74c0.03,4.01-1.02,4.57-5.97,3.58
					c-4.94-0.98-11.21,1.64-11.28,7.65c-0.11,10.26,4.55,13.06,15.24,15.06c10.69,2,17.11-11,15.44-16.8
					C276.28,139.2,278.45,133.56,281.79,133.91z"/>
				<path class="st17" d="M291.95,211.45c0,0,5.56-2.35,4.44-6.21s-6.42-13.02-5.03-21.39c1.4-8.37,2.66-6.7,0.99-13.83
					c0,0,5.58,4.44,8.55,5.05c0,0-2.54-1.45-1.92-6.8c0.62-5.35,3.3-7.9,4.94-8.9c0,0-8.11-3.42-12.51-6.33
					c-4.4-2.91-10.05-2.16-16.89-1.16c-9.17,1.34-19.78-0.62-25.64,1.27c-5.87,1.89-11.04,8.74-17.37,12.75
					c-1.54,0.97,5.64,10.73,11.51,8.49c1.06-0.4,5.36-3.29,6.13-3.75c0.77-0.46,5.16,2.59,6.86,13.08
					c0.96,5.93,0.47,19.93-0.31,22.31c-0.77,2.37-0.15,3.33,1.96,3.69C259.77,210.08,278.88,216.83,291.95,211.45z"/>
				<g class="st25">
					<path class="st31" d="M298.16,173.94c-2.78-1.51-5.81-3.91-5.81-3.91s-1.91-5.97-1.84-8.17
						C290.58,159.66,295.88,172.77,298.16,173.94z"/>
					<path class="st31" d="M298.43,174.08c-0.07-0.04-0.14-0.07-0.21-0.11C298.73,174.19,298.73,174.21,298.43,174.08z"/>
					<path class="st31" d="M274.41,151.89c0.04-0.01,0.08-0.01,0.12-0.01c4.47-0.65,8.43-1.19,11.87-0.68
						c-1.72-0.18-6.67,0.16-2.98,1.88c3.97,1.86,6.31,7.05,3.13,8.15c-3.17,1.1-12-3.37-12-3.37
						C273.87,155.77,273.96,153.72,274.41,151.89z"/>
				</g>
				<g>
					<path class="st16" d="M281.79,149.64c-1.16,0.52-3.04,0.83-4.13,0.94c0.04,0.59,0.82,4.7,0.46,6.98
						c-0.47,2.98-11.31-3.05-10.91-5.19c0,0,2.91-5.37,1.83-9.28C269.04,143.09,282.95,149.12,281.79,149.64z"/>
					<path class="st33" d="M272.5,144.63C272.5,144.63,272.5,144.63,272.5,144.63c-0.24-0.11-0.49-0.16-0.75-0.13
						c-0.95,0.11-1.8,0.43-2.49,1.11c0.05-0.86,0-1.71-0.22-2.51C269.04,143.09,270.54,143.74,272.5,144.63z"/>
					<path class="st33" d="M271.7,146.95c0,0,11.03,2.27,10.1,2.7c-1.16,0.52-3.04,0.83-4.13,0.94
						C273.52,149.47,271.7,146.95,271.7,146.95z"/>
					<path class="st15" d="M281.44,132.81c1.25,2.5,1.16,15.02,0.99,16.27c-0.1,0.8-2.31,0.92-3.87,0.59
						c-2.94-0.61-6.2-2.2-6.65-2.52c-0.69-0.49-0.93-2.21-1-3.12c-0.64,0.45-2.04-0.25-2.46-1.7c-0.12-0.61,1.64-1.19,2.4-0.96
						c0.57,0.63,0.97,1.37,1.05,1.7c-0.7-5.22,3.66-5.64,3.03-9.66c-0.31-1.96,4.05-0.74,4.47-0.96
						C279.84,132.23,280.18,130.31,281.44,132.81z"/>
				</g>
				<path class="st34" d="M258.48,180.08c2.78,4.09,11.85,8.54,12.1,10.16c0.25,1.61-13.71-4.47-14.08-0.06
					c-0.07-2.5-0.22-4.79-0.49-6.45c-1.7-10.5-6.09-13.55-6.86-13.08c0,0,5.06-3.82,6.42-3.73S255.69,175.99,258.48,180.08z"/>
			</g>
		</g>
		<g>
			<g>
				<g>
					<polygon class="st35" points="290.53,108.98 292.35,104.28 289.26,101.97 284.31,103.78 282.61,107.95 285.67,110.63 					"/>
					<path class="st0" d="M282.91,107.69l1.49-3.64c0.03-0.08,0.1-0.15,0.19-0.18l4.49-1.65c0.1-0.04,0.21-0.02,0.3,0.04l2.57,1.92
						c0.11,0.09,0.16,0.24,0.11,0.37l-1.6,4.13c-0.03,0.09-0.11,0.16-0.19,0.19l-4.37,1.49c-0.11,0.04-0.23,0.01-0.31-0.06
						l-2.58-2.26C282.89,107.96,282.86,107.82,282.91,107.69z"/>
					<polygon class="st6" points="282.61,107.95 279.87,111.46 281.13,116.08 284.67,115.66 285.67,110.63 					"/>
					<path class="st35" d="M292.35,104.28l5.06,0.74l1.12-1.27c-2.34-2.05-5.27-3.01-8.16-2.92l-1.1,1.14L292.35,104.28z"/>
					<path class="st0" d="M290.57,101c2.72-0.04,5.33,0.86,7.45,2.55c0.14,0.11,0.16,0.32,0.04,0.46l-0.6,0.69
						c-0.07,0.08-0.18,0.12-0.29,0.11l-4.67-0.69c-0.05-0.01-0.1-0.03-0.14-0.06l-2.54-1.9c-0.15-0.11-0.17-0.34-0.04-0.48
						l0.57-0.59C290.4,101.04,290.48,101,290.57,101z"/>
					<path class="st6" d="M289.26,101.97l1.1-1.14c-2.38,0.08-4.73,0.87-6.7,2.35l0.65,0.6L289.26,101.97z"/>
					<path class="st35" d="M282.61,107.95l1.7-4.17l-0.65-0.6c-0.64,0.48-1.25,1.04-1.8,1.67c-1.62,1.85-2.56,4.06-2.84,6.33
						l0.84,0.28L282.61,107.95z"/>
					<path class="st0" d="M279.47,111.14c-0.15-0.05-0.24-0.2-0.22-0.35c0.34-2.16,1.28-4.17,2.74-5.83
						c0.44-0.5,0.92-0.96,1.44-1.38c0.12-0.1,0.3-0.09,0.42,0.02l0.09,0.08c0.1,0.09,0.13,0.23,0.08,0.35l-1.55,3.79
						c-0.01,0.03-0.03,0.05-0.04,0.08l-2.48,3.18c-0.08,0.11-0.22,0.15-0.35,0.11L279.47,111.14z"/>
					<path class="st35" d="M279.87,111.46l-0.84-0.28c-0.35,2.88,0.36,5.86,2.1,8.3l0.01-3.4L279.87,111.46z"/>
					<path class="st0" d="M280.35,117.85c-0.93-1.86-1.36-3.93-1.21-6.03c0.01-0.21,0.22-0.34,0.42-0.28l0,0
						c0.1,0.03,0.18,0.12,0.21,0.22l1.18,4.3c0.01,0.03,0.01,0.06,0.01,0.08l0,1.56C280.95,118.03,280.5,118.14,280.35,117.85z"/>
				</g>
				<g>
					<path class="st35" d="M288.53,119.05l-1.93-1.69l-1.93-1.69l-3.53,0.41l-0.01,3.4c0.52,0.73,1.13,1.42,1.84,2.03
						c0.7,0.62,1.46,1.13,2.26,1.55l3.37-0.45L288.53,119.05z"/>
					<path class="st0" d="M283.08,121.37c-0.63-0.55-1.21-1.18-1.71-1.87c-0.04-0.06-0.06-0.12-0.06-0.19l0.01-2.79
						c0-0.16,0.12-0.3,0.28-0.32l2.88-0.34c0.09-0.01,0.18,0.02,0.25,0.08l3.53,3.09c0.07,0.06,0.11,0.14,0.11,0.23l0.05,2.9
						c0,0.16-0.12,0.3-0.28,0.32l-2.77,0.37c-0.07,0.01-0.14,0-0.2-0.04C284.41,122.41,283.71,121.93,283.08,121.37z"/>
					<polygon class="st35" points="294.39,112.36 292.46,110.67 290.53,108.98 285.67,110.63 284.67,115.66 286.6,117.35 
						288.53,119.05 293.39,117.39 					"/>
					<path class="st0" d="M284.9,115.42l0.89-4.47c0.02-0.11,0.1-0.2,0.21-0.24l4.32-1.47c0.11-0.04,0.23-0.01,0.31,0.06l3.43,3.01
						c0.09,0.07,0.12,0.19,0.1,0.3l-0.89,4.47c-0.02,0.11-0.1,0.2-0.21,0.24l-4.32,1.47c-0.11,0.04-0.23,0.01-0.31-0.06l-3.43-3.01
						C284.91,115.64,284.87,115.53,284.9,115.42z"/>
					<polygon class="st35" points="294.39,112.36 298.81,109.94 301.5,112.69 300.35,117.84 296.45,120.07 293.39,117.39 					"/>
					<path class="st0" d="M293.62,117.15l0.9-4.53c0.02-0.09,0.08-0.17,0.16-0.22l3.89-2.13c0.13-0.07,0.28-0.05,0.38,0.06l2.24,2.3
						c0.08,0.08,0.11,0.19,0.08,0.29l-1.04,4.67c-0.02,0.09-0.07,0.16-0.15,0.21l-3.41,1.95c-0.12,0.07-0.27,0.05-0.37-0.04
						l-2.58-2.26C293.63,117.37,293.6,117.26,293.62,117.15z"/>
					<polygon class="st6" points="297.4,105.02 292.35,104.28 290.53,108.98 292.46,110.67 294.39,112.36 298.81,109.94 					"/>
					<polygon class="st6" points="296.45,120.07 293.33,123.25 288.58,122.6 288.53,119.05 293.39,117.39 					"/>
					<path class="st35" d="M298.81,109.94l-1.4-4.92l1.12-1.27c2.34,2.05,3.68,4.83,3.96,7.71l-0.99,1.24L298.81,109.94z"/>
					<path class="st0" d="M298.94,109.77l-1.29-4.54c-0.03-0.1,0-0.22,0.07-0.3l0.6-0.69c0.12-0.14,0.33-0.15,0.46-0.02
						c1.96,1.87,3.19,4.35,3.51,7.04c0.01,0.09-0.02,0.17-0.07,0.24l-0.51,0.64c-0.12,0.15-0.34,0.16-0.48,0.02l-2.21-2.27
						C298.98,109.86,298.96,109.82,298.94,109.77z"/>
					<path class="st6" d="M301.5,112.69l0.99-1.24c0.24,2.37-0.24,4.8-1.45,6.95l-0.68-0.57L301.5,112.69z"/>
					<path class="st35" d="M296.45,120.07l3.91-2.23l0.68,0.57c-0.39,0.7-0.86,1.37-1.42,2c-1.62,1.85-3.69,3.07-5.9,3.64l-0.39-0.8
						L296.45,120.07z"/>
					<path class="st0" d="M293.7,123.12l2.82-2.88c0.02-0.02,0.04-0.04,0.07-0.05l3.55-2.03c0.12-0.07,0.26-0.05,0.36,0.03
						l0.09,0.08c0.12,0.1,0.15,0.28,0.07,0.41c-0.35,0.57-0.74,1.11-1.18,1.61c-1.45,1.66-3.32,2.85-5.41,3.48
						c-0.15,0.04-0.31-0.03-0.38-0.17l-0.06-0.11C293.58,123.37,293.6,123.22,293.7,123.12z"/>
					<path class="st35" d="M293.33,123.25l0.39,0.8c-2.81,0.73-5.86,0.41-8.5-0.99l3.37-0.45L293.33,123.25z"/>
					<path class="st0" d="M288.63,122.79l4.42,0.6c0.1,0.01,0.2,0.08,0.24,0.17h0c0.09,0.19-0.02,0.41-0.22,0.45
						c-2.06,0.42-4.17,0.28-6.13-0.4c-0.32-0.11-0.27-0.57,0.06-0.62l1.54-0.21C288.57,122.78,288.6,122.78,288.63,122.79z"/>
				</g>
			</g>
		</g>
	</g>
</g>
</svg>
